<svg width="210" height="191" viewBox="0 0 210 191" fill="none" xmlns="http://www.w3.org/2000/svg">
<path fill-rule="evenodd" clip-rule="evenodd" d="M80.0881 22.328V22.328L81.3041 22.0413L82.5285 21.7607L83.7616 21.4866L85.0032 21.2194L86.2535 20.9596L87.5123 20.7076L88.7797 20.4638L90.0555 20.2287L91.3398 20.0028L92.6323 19.7864L93.933 19.5801L95.2418 19.3843L96.5584 19.1995L97.8826 19.0262L99.2143 18.8647L100.553 18.7156L101.899 18.5793L103.252 18.4563L104.61 18.347L105.975 18.2518L107.346 18.1711L108.722 18.1054L110.102 18.0551L111.488 18.0205L112.877 18.002L114.27 18L115.666 18.0148L117.065 18.0468L118.466 18.0962L119.869 18.1634L121.274 18.2485L122.679 18.3519L124.084 18.4738L125.489 18.6144L126.893 18.7738L128.296 18.9523L129.696 19.15L131.095 19.3669L132.49 19.6032L133.882 19.8589L135.27 20.1341L136.654 20.4287L138.032 20.7429L139.405 21.0765L140.771 21.4296L142.131 21.8019L143.485 22.1935L144.83 22.6042L146.168 23.0339L147.497 23.4824L148.818 23.9495L150.129 24.4351L151.431 24.9388L152.723 25.4605L154.005 25.9998L155.276 26.5566L156.536 27.1305L157.786 27.7212L159.024 28.3284L160.251 28.9518L161.466 29.591L162.669 30.2457L163.86 30.9155L165.04 31.6002L166.207 32.2993L167.362 33.0124L168.504 33.7393L169.635 34.4796L170.753 35.233L171.858 35.999L172.952 36.7773L174.033 37.5678L175.102 38.3699L176.158 39.1834L177.203 40.008L178.235 40.8435L179.255 41.6895L180.263 42.5458L181.259 43.4121L182.244 44.2882L183.216 45.1739L184.177 46.069L185.126 46.9733L186.063 47.8866L186.989 48.8087L187.902 49.7396L188.804 50.6791L189.694 51.627L190.572 52.5833L191.438 53.5479L192.292 54.5207L193.134 55.5016L193.963 56.4906L194.779 57.4878L195.582 58.493L196.371 59.5064L197.147 60.528L197.907 61.5577L198.653 62.5957L199.382 63.6418L200.095 64.6962L200.79 65.7589L201.468 66.8298L202.126 67.909L202.765 68.9963L203.384 70.0918L203.98 71.1954L204.555 72.3069L205.106 73.4263L205.633 74.5533L206.134 75.6879L206.609 76.8297L207.058 77.9785L207.477 79.1341L207.868 80.2961L208.229 81.4642L208.559 82.638L208.857 83.8171L209.122 85.001L209.354 86.1893L209.551 87.3814L209.714 88.5769L209.84 89.7751L209.931 90.9754L209.984 92.1773L210 93.38L209.978 94.5829L209.918 95.7854L209.819 96.9866L209.682 98.1859L209.505 99.3826L209.29 100.576L209.035 101.765L208.742 102.949L208.41 104.128L208.04 105.3L207.631 106.465L207.185 107.622L206.702 108.771L206.183 109.911L205.628 111.04L205.038 112.159L204.413 113.267L203.755 114.363L203.065 115.447L202.344 116.518L201.591 117.575L200.81 118.618L200 119.648L199.163 120.662L198.299 121.661L197.411 122.645L196.5 123.613L195.566 124.566L194.611 125.502L193.636 126.421L192.643 127.325L191.633 128.211L190.606 129.082L189.566 129.935L188.512 130.772L187.446 131.593L186.369 132.397L185.283 133.185L184.19 133.957L183.089 134.713L181.983 135.453L180.872 136.179L179.758 136.889L178.641 137.585L177.524 138.267L176.407 138.935L175.29 139.59L174.175 140.231L173.063 140.861L171.955 141.478L170.851 142.084L169.752 142.679L168.659 143.263L167.572 143.838L166.492 144.403L165.42 144.96L164.355 145.508L163.299 146.048L162.251 146.58L161.213 147.106L160.183 147.626L159.162 148.139L158.15 148.647L157.147 149.15L156.153 149.648L155.168 150.141L154.192 150.631L153.224 151.116L152.265 151.598L151.313 152.076L150.369 152.551L149.432 153.024L148.502 153.493L147.578 153.959L146.661 154.423L145.748 154.884L144.841 155.342L143.938 155.798L143.04 156.251L142.144 156.7L141.252 157.147L140.363 157.591L139.475 158.032L138.589 158.469L137.705 158.903L136.82 159.333L135.937 159.759L135.053 160.181L134.168 160.598L133.283 161.01L132.396 161.418L131.508 161.821L130.618 162.218L129.726 162.609L128.832 162.995L127.935 163.375L127.036 163.748L126.134 164.115L125.229 164.476L124.321 164.829L123.411 165.176L122.497 165.516L121.58 165.849L120.661 166.175L119.738 166.495L118.813 166.807L117.885 167.112L116.954 167.41L116.021 167.701L115.085 167.986L114.147 168.263L113.206 168.534L112.263 168.797L111.317 169.054L110.369 169.304L109.42 169.547L108.467 169.784L107.513 170.014L106.557 170.238L105.599 170.455L104.639 170.665L103.677 170.869L102.714 171.067L101.748 171.259L100.781 171.444L99.8117 171.623L98.841 171.796L97.8686 171.962L96.8945 172.122L95.9187 172.277L94.9413 172.425L93.9623 172.567L92.9816 172.702L91.9992 172.832L91.0153 172.955L90.0297 173.072L89.0425 173.182L88.0537 173.286L87.0634 173.384L86.0714 173.475L85.0779 173.559L84.0829 173.636L83.0863 173.707L82.0883 173.77L81.0889 173.826L80.0881 173.875L79.086 173.916L78.0826 173.95L77.0781 173.975L76.0725 173.992L75.066 174L74.0587 173.999L73.0508 173.989L72.0424 173.969L71.0338 173.94L70.0251 173.899L69.0167 173.848L68.0087 173.785L67.0017 173.711L65.9957 173.625L64.9913 173.526L63.9887 173.414L62.9884 173.288L61.9909 173.149L60.9965 172.996L60.0058 172.829L59.0192 172.646L58.0373 172.449L57.0606 172.236L56.0895 172.008L55.1248 171.763L54.1669 171.502L53.2165 171.225L52.274 170.932L51.3402 170.621L50.4156 170.294L49.5009 169.951L48.5966 169.59L47.7033 169.212L46.8216 168.817L45.9521 168.406L45.0955 167.978L44.2522 167.533L43.4229 167.071L42.608 166.594L41.8082 166.1L41.024 165.59L40.2558 165.065L39.5042 164.524L38.7696 163.968L38.0525 163.397L37.3533 162.813L36.6725 162.214L36.0104 161.601L35.3674 160.975L34.7438 160.337L34.14 159.686L33.5562 159.023L32.9927 158.349L32.4495 157.664L31.9269 156.969L31.4249 156.265L30.9436 155.551L30.4831 154.829L30.0432 154.1L29.6239 153.363L29.2251 152.62L28.8466 151.871L28.4881 151.118L28.1495 150.359L27.8304 149.598L27.5305 148.833L27.2494 148.066L26.9867 147.297L26.7419 146.527L26.5144 145.757L26.3038 144.987L26.1095 144.218L25.9308 143.45L25.7672 142.684L25.618 141.921L25.4824 141.162L25.3597 140.406L25.2493 139.654L25.1503 138.906L25.0619 138.164L24.9834 137.427L24.914 136.696L24.8529 135.972L24.7992 135.254L24.7521 134.542L24.7107 133.838L24.6744 133.141L24.6421 132.451L24.6132 131.769L24.5868 131.095L24.5621 130.429L24.5383 129.771L24.5146 129.12L24.49 128.478L24.4639 127.843L24.4353 127.217L24.4033 126.598L24.3673 125.987L24.3263 125.384L24.2795 124.789L24.2262 124.201L24.1656 123.62L24.0968 123.046L24.0193 122.479L23.9323 121.918L23.8351 121.364L23.7271 120.815L23.6077 120.272L23.4763 119.733L23.3326 119.2L23.1759 118.67L23.0058 118.145L22.8221 117.623L22.6243 117.103L22.4122 116.586L22.1855 116.071L21.9442 115.557L21.6881 115.043L21.4172 114.53L21.1313 114.016L20.8307 113.502L20.5154 112.986L20.1855 112.467L19.8413 111.947L19.483 111.423L19.111 110.895L18.7257 110.363L18.3274 109.826L17.9166 109.284L17.4939 108.736L17.0597 108.182L16.6147 107.621L16.1595 107.053L15.6949 106.477L15.2214 105.893L14.7398 105.3L14.2509 104.699L13.7555 104.088L13.2543 103.468L12.7483 102.838L12.2383 102.198L11.7252 101.547L11.21 100.886L10.6937 100.214L10.1774 99.5318L9.66195 98.8381L9.14856 98.1334L8.63829 97.4175L8.13225 96.6905L7.63156 95.9523L7.13735 95.2031L6.65077 94.443L6.17296 93.672L5.70505 92.8904L5.24819 92.0984L4.80351 91.2961L4.37212 90.484L3.95513 89.6622L3.55364 88.8312L3.16869 87.9913L2.80134 87.1429L2.4526 86.2866L2.12345 85.4227L1.81483 84.5517L1.52767 83.6742L1.26281 82.7907L1.02111 81.9018L0.803328 81.0081L0.610214 80.1102L0.442449 79.2087L0.30067 78.3043L0.185459 77.3975L0.0973432 76.4891L0.0367946 75.5796L0.00422824 74.6699L1.19534e-06 73.7605L0.0244122 72.8521L0.0777011 71.9454L0.160049 71.041L0.271577 70.1396L0.41235 69.2418L0.582383 68.3482L0.781645 67.4595L1.01006 66.5762L1.2675 65.6991L1.55381 64.8285L1.86876 63.9652L2.2121 63.1096L2.58353 62.2623L2.98271 61.4238L3.40924 60.5945L3.86271 59.7749L4.34263 58.9655L4.84853 58.1665L5.37984 57.3785L5.93601 56.6016L6.51643 55.8363L7.12047 55.0828L7.74746 54.3413L8.39672 53.612L9.06756 52.895L9.75923 52.1906L10.471 51.4988L11.2021 50.8196L11.9518 50.1532L12.7193 49.4994L13.5039 48.8582L14.3047 48.2295L15.121 47.6133L15.9519 47.0093L16.7968 46.4175L17.6549 45.8376L18.5255 45.2693L19.4077 44.7124L20.3009 44.1667L21.2045 43.6318L22.1177 43.1074L23.04 42.5931L23.9707 42.0887L24.9092 41.5938L25.855 41.108L26.8076 40.6309L27.7665 40.1622L28.7313 39.7014L29.7016 39.2484L30.677 38.8025L31.6572 38.3637L32.642 37.9314L33.631 37.5055L34.6241 37.0856L35.6211 36.6714L36.6218 36.2627L37.6261 35.8591L38.6339 35.4604L39.645 35.0664L40.6594 34.6767L41.6771 34.291L42.6979 33.9092L43.7219 33.5309L44.7491 33.1559L45.7796 32.784L46.8132 32.415L47.8503 32.0486L48.8907 31.6847L49.9346 31.3231L50.9821 30.9637L52.0333 30.6063L53.0885 30.2507L54.1477 29.8969L55.2111 29.5448L56.279 29.1944L57.3514 28.8455L58.4286 28.4981L59.5108 28.1523L60.5982 27.8081L61.6911 27.4656L62.7896 27.1247L63.894 26.7856L65.0044 26.4483L66.1212 26.1131L67.2445 25.7801L68.3746 25.4495L69.5116 25.1214L70.6558 24.7961L71.8073 24.4738L72.9664 24.1549L74.1332 23.8395L75.3079 23.5281L76.4906 23.2208L77.6815 22.9182L78.8806 22.6204L80.0881 22.328" fill="url(#paint0_radial_36_12)"/>
<path d="M45.875 131L62.375 57.625H64.25L70 84.125L59.625 131H45.875ZM69 118.5L71.875 104.875H81.25L67.75 43.5H81.5L101.625 131H87.75L85 118.5H69ZM108.5 131V43.5H122.375V131H108.5ZM128.875 131V118.75H132.75C136.167 118.75 139.125 118.042 141.625 116.625C145.958 114.208 148.125 110.417 148.125 105.25C148.125 103.75 147.875 102.292 147.375 100.875C145.625 95.7917 141.625 93.25 135.375 93.25H128.875V81.125H135.375C137.458 81.125 139.375 80.7917 141.125 80.125C145.708 78.375 148 74.7083 148 69.125C148 67.125 147.583 65.1667 146.75 63.25C144.333 58.25 140.083 55.75 134 55.75H128.875V43.5H135.75C143 43.5 148.958 45.4167 153.625 49.25C159.125 54 161.875 60.3333 161.875 68.25C161.875 69.4167 161.792 70.5833 161.625 71.75C160.792 78.5833 158.042 83.7083 153.375 87.125C159.125 91.5417 162.042 97.875 162.125 106.125C162.125 111.208 160.833 115.792 158.25 119.875C153.583 127.292 146.125 131 135.875 131H128.875Z" fill="white"/>
<defs>
<radialGradient id="paint0_radial_36_12" cx="0" cy="0" r="1" gradientUnits="userSpaceOnUse" gradientTransform="translate(114.469 88.9662) rotate(-122.221) scale(124.664 164.846)">
<stop stop-color="#05041E"/>
<stop offset="1" stop-color="#6320EE"/>
</radialGradient>
</defs>
</svg>
