<svg width="178" height="151" viewBox="0 0 178 151" fill="none" xmlns="http://www.w3.org/2000/svg">
<path d="M176.679 149.822C176.677 149.987 176.611 150.146 176.495 150.263C176.378 150.38 176.22 150.444 176.056 150.444H173.552C173.209 150.445 172.93 150.169 172.929 149.826V74.2072C172.929 72.5403 172.368 71.1875 171.68 71.1844H15.8095C15.1181 71.1875 14.5606 72.5403 14.5575 74.2072V149.358C14.5565 149.679 14.3129 149.946 13.9938 149.977C13.4893 150.027 12.9848 150.071 12.4834 150.111C12.4709 150.111 12.4584 150.114 12.446 150.114C12.1719 150.139 11.8979 150.158 11.6238 150.18H11.6207C11.4774 149.921 11.3404 149.657 11.2002 149.393C11.1553 149.303 11.1319 149.204 11.1317 149.103V70.2856C11.1317 69.8253 11.1504 69.362 11.1815 68.9048C11.226 68.277 11.304 67.6521 11.4151 67.0326C11.9414 64.1435 13.1311 62.1874 14.4828 62.1812H173.004C173.201 62.1825 173.396 62.2237 173.577 62.3024C173.842 62.4198 174.082 62.5878 174.284 62.7969C174.557 63.0805 174.79 63.3995 174.978 63.7454C175.645 64.9179 176.121 66.6657 176.289 68.6995C176.289 68.7182 176.292 68.7369 176.292 68.7555C176.336 69.2593 176.358 69.7725 176.355 70.2856L176.398 76.9502L176.426 80.9246L176.51 93.3954L176.542 97.824L176.679 149.822Z" fill="#E6E6E6"/>
<path d="M118.83 39.126H102.945C102.477 39.1267 102.098 39.5059 102.098 39.9732V65.0311H119.678V39.9732C119.678 39.5055 119.299 39.1262 118.83 39.126H118.83ZM110.94 53.3635C109.907 53.3587 109.07 52.5229 109.065 51.4905V48.6003C109.065 47.5658 109.905 46.7272 110.94 46.7272C111.976 46.7272 112.816 47.5658 112.816 48.6003V51.4905C112.811 52.5229 111.974 53.3587 110.94 53.3635Z" fill="#CCCCCC"/>
<path d="M102.044 64.2297V66.6473C102.044 66.9081 102.256 67.1194 102.517 67.1199H119.259C119.52 67.1186 119.731 66.9078 119.733 66.6473V64.2297H102.044Z" fill="#3F3D56"/>
<path d="M145.134 0.0205078H77.2316C76.017 0.0224391 75.0328 1.0052 75.0309 2.2181V47.9734C75.0321 49.1866 76.0167 50.1698 77.2316 50.171H145.134C146.349 50.1699 147.333 49.1866 147.334 47.9734V2.2181C147.332 1.0052 146.348 0.0224391 145.134 0.0205078Z" fill="#E6E6E6"/>
<path d="M144.567 1.60767H77.7989C77.1485 1.60907 76.622 2.13593 76.6219 2.78539V47.4066C76.6231 48.0552 77.1494 48.5808 77.7989 48.5819H144.567C145.216 48.5808 145.743 48.0552 145.744 47.4066V2.78538C145.744 2.13593 145.217 1.60907 144.567 1.60767Z" fill="white"/>
<path d="M131.562 67.9612H91.8383C91.4347 67.9612 91.1075 67.6345 91.1075 67.2315C91.1075 67.181 91.1128 67.1306 91.1232 67.0812L91.7396 64.158C91.8118 63.821 92.1094 63.5799 92.4545 63.5786H130.945C131.29 63.5799 131.588 63.821 131.66 64.158L132.277 67.0812C132.36 67.4756 132.107 67.8625 131.712 67.9456C131.663 67.956 131.612 67.9612 131.562 67.9612Z" fill="#CCCCCC"/>
<path d="M93.808 64.105H92.8886C92.8046 64.105 92.7366 64.173 92.7366 64.2568V64.6862C92.7366 64.77 92.8046 64.838 92.8886 64.838H93.808C93.8919 64.838 93.96 64.77 93.96 64.6862V64.2568C93.96 64.173 93.8919 64.105 93.808 64.105Z" fill="#E6E6E6"/>
<path d="M96.2549 64.105H95.3355C95.2515 64.105 95.1835 64.173 95.1835 64.2568V64.6862C95.1835 64.77 95.2515 64.838 95.3355 64.838H96.2549C96.3388 64.838 96.4069 64.77 96.4069 64.6862V64.2568C96.4069 64.173 96.3388 64.105 96.2549 64.105Z" fill="#E6E6E6"/>
<path d="M98.7018 64.105H97.7824C97.6984 64.105 97.6304 64.173 97.6304 64.2568V64.6862C97.6304 64.77 97.6984 64.838 97.7824 64.838H98.7018C98.7857 64.838 98.8538 64.77 98.8538 64.6862V64.2568C98.8538 64.173 98.7857 64.105 98.7018 64.105Z" fill="#E6E6E6"/>
<path d="M101.149 64.105H100.229C100.145 64.105 100.077 64.173 100.077 64.2568V64.6862C100.077 64.77 100.145 64.838 100.229 64.838H101.149C101.233 64.838 101.301 64.77 101.301 64.6862V64.2568C101.301 64.173 101.233 64.105 101.149 64.105Z" fill="#E6E6E6"/>
<path d="M103.596 64.105H102.676C102.592 64.105 102.524 64.173 102.524 64.2568V64.6862C102.524 64.77 102.592 64.838 102.676 64.838H103.596C103.68 64.838 103.748 64.77 103.748 64.6862V64.2568C103.748 64.173 103.68 64.105 103.596 64.105Z" fill="#E6E6E6"/>
<path d="M106.042 64.105H105.123C105.039 64.105 104.971 64.173 104.971 64.2568V64.6862C104.971 64.77 105.039 64.838 105.123 64.838H106.042C106.126 64.838 106.195 64.77 106.195 64.6862V64.2568C106.195 64.173 106.126 64.105 106.042 64.105Z" fill="#E6E6E6"/>
<path d="M108.489 64.105H107.57C107.486 64.105 107.418 64.173 107.418 64.2568V64.6862C107.418 64.77 107.486 64.838 107.57 64.838H108.489C108.573 64.838 108.641 64.77 108.641 64.6862V64.2568C108.641 64.173 108.573 64.105 108.489 64.105Z" fill="#E6E6E6"/>
<path d="M110.936 64.105H110.017C109.933 64.105 109.865 64.173 109.865 64.2568V64.6862C109.865 64.77 109.933 64.838 110.017 64.838H110.936C111.02 64.838 111.088 64.77 111.088 64.6862V64.2568C111.088 64.173 111.02 64.105 110.936 64.105Z" fill="#E6E6E6"/>
<path d="M113.383 64.105H112.464C112.38 64.105 112.312 64.173 112.312 64.2568V64.6862C112.312 64.77 112.38 64.838 112.464 64.838H113.383C113.467 64.838 113.535 64.77 113.535 64.6862V64.2568C113.535 64.173 113.467 64.105 113.383 64.105Z" fill="#E6E6E6"/>
<path d="M115.83 64.105H114.911C114.827 64.105 114.759 64.173 114.759 64.2568V64.6862C114.759 64.77 114.827 64.838 114.911 64.838H115.83C115.914 64.838 115.982 64.77 115.982 64.6862V64.2568C115.982 64.173 115.914 64.105 115.83 64.105Z" fill="#E6E6E6"/>
<path d="M118.277 64.105H117.357C117.274 64.105 117.205 64.173 117.205 64.2568V64.6862C117.205 64.77 117.274 64.838 117.357 64.838H118.277C118.361 64.838 118.429 64.77 118.429 64.6862V64.2568C118.429 64.173 118.361 64.105 118.277 64.105Z" fill="#E6E6E6"/>
<path d="M120.724 64.105H119.804C119.72 64.105 119.652 64.173 119.652 64.2568V64.6862C119.652 64.77 119.72 64.838 119.804 64.838H120.724C120.808 64.838 120.876 64.77 120.876 64.6862V64.2568C120.876 64.173 120.808 64.105 120.724 64.105Z" fill="#E6E6E6"/>
<path d="M123.171 64.105H122.251C122.167 64.105 122.099 64.173 122.099 64.2568V64.6862C122.099 64.77 122.167 64.838 122.251 64.838H123.171C123.254 64.838 123.323 64.77 123.323 64.6862V64.2568C123.323 64.173 123.254 64.105 123.171 64.105Z" fill="#E6E6E6"/>
<path d="M125.617 64.105H124.698C124.614 64.105 124.546 64.173 124.546 64.2568V64.6862C124.546 64.77 124.614 64.838 124.698 64.838H125.617C125.701 64.838 125.769 64.77 125.769 64.6862V64.2568C125.769 64.173 125.701 64.105 125.617 64.105Z" fill="#E6E6E6"/>
<path d="M128.064 64.105H127.145C127.061 64.105 126.993 64.173 126.993 64.2568V64.6862C126.993 64.77 127.061 64.838 127.145 64.838H128.064C128.148 64.838 128.216 64.77 128.216 64.6862V64.2568C128.216 64.173 128.148 64.105 128.064 64.105Z" fill="#E6E6E6"/>
<path d="M130.511 64.105H129.592C129.508 64.105 129.44 64.173 129.44 64.2568V64.6862C129.44 64.77 129.508 64.838 129.592 64.838H130.511C130.595 64.838 130.663 64.77 130.663 64.6862V64.2568C130.663 64.173 130.595 64.105 130.511 64.105Z" fill="#E6E6E6"/>
<path d="M93.7792 65.3267H92.8598C92.7758 65.3267 92.7078 65.3946 92.7078 65.4785V65.9079C92.7078 65.9917 92.7758 66.0597 92.8598 66.0597H93.7792C93.8631 66.0597 93.9312 65.9917 93.9312 65.9079V65.4785C93.9312 65.3946 93.8631 65.3267 93.7792 65.3267Z" fill="#E6E6E6"/>
<path d="M96.2259 65.3267H95.3066C95.2226 65.3267 95.1545 65.3946 95.1545 65.4785V65.9079C95.1545 65.9917 95.2226 66.0597 95.3066 66.0597H96.2259C96.3099 66.0597 96.378 65.9917 96.378 65.9079V65.4785C96.378 65.3946 96.3099 65.3267 96.2259 65.3267Z" fill="#E6E6E6"/>
<path d="M98.6728 65.3267H97.7535C97.6695 65.3267 97.6014 65.3946 97.6014 65.4785V65.9079C97.6014 65.9917 97.6695 66.0597 97.7535 66.0597H98.6728C98.7568 66.0597 98.8249 65.9917 98.8249 65.9079V65.4785C98.8249 65.3946 98.7568 65.3267 98.6728 65.3267Z" fill="#E6E6E6"/>
<path d="M101.12 65.3267H100.2C100.116 65.3267 100.048 65.3946 100.048 65.4785V65.9079C100.048 65.9917 100.116 66.0597 100.2 66.0597H101.12C101.204 66.0597 101.272 65.9917 101.272 65.9079V65.4785C101.272 65.3946 101.204 65.3267 101.12 65.3267Z" fill="#E6E6E6"/>
<path d="M103.567 65.3267H102.647C102.563 65.3267 102.495 65.3946 102.495 65.4785V65.9079C102.495 65.9917 102.563 66.0597 102.647 66.0597H103.567C103.651 66.0597 103.719 65.9917 103.719 65.9079V65.4785C103.719 65.3946 103.651 65.3267 103.567 65.3267Z" fill="#E6E6E6"/>
<path d="M106.014 65.3267H105.094C105.01 65.3267 104.942 65.3946 104.942 65.4785V65.9079C104.942 65.9917 105.01 66.0597 105.094 66.0597H106.014C106.098 66.0597 106.166 65.9917 106.166 65.9079V65.4785C106.166 65.3946 106.098 65.3267 106.014 65.3267Z" fill="#E6E6E6"/>
<path d="M108.46 65.3267H107.541C107.457 65.3267 107.389 65.3946 107.389 65.4785V65.9079C107.389 65.9917 107.457 66.0597 107.541 66.0597H108.46C108.544 66.0597 108.612 65.9917 108.612 65.9079V65.4785C108.612 65.3946 108.544 65.3267 108.46 65.3267Z" fill="#E6E6E6"/>
<path d="M110.907 65.3267H109.988C109.904 65.3267 109.836 65.3946 109.836 65.4785V65.9079C109.836 65.9917 109.904 66.0597 109.988 66.0597H110.907C110.991 66.0597 111.059 65.9917 111.059 65.9079V65.4785C111.059 65.3946 110.991 65.3267 110.907 65.3267Z" fill="#E6E6E6"/>
<path d="M113.354 65.3267H112.435C112.351 65.3267 112.283 65.3946 112.283 65.4785V65.9079C112.283 65.9917 112.351 66.0597 112.435 66.0597H113.354C113.438 66.0597 113.506 65.9917 113.506 65.9079V65.4785C113.506 65.3946 113.438 65.3267 113.354 65.3267Z" fill="#E6E6E6"/>
<path d="M115.801 65.3267H114.882C114.798 65.3267 114.73 65.3946 114.73 65.4785V65.9079C114.73 65.9917 114.798 66.0597 114.882 66.0597H115.801C115.885 66.0597 115.953 65.9917 115.953 65.9079V65.4785C115.953 65.3946 115.885 65.3267 115.801 65.3267Z" fill="#E6E6E6"/>
<path d="M118.248 65.3267H117.329C117.245 65.3267 117.177 65.3946 117.177 65.4785V65.9079C117.177 65.9917 117.245 66.0597 117.329 66.0597H118.248C118.332 66.0597 118.4 65.9917 118.4 65.9079V65.4785C118.4 65.3946 118.332 65.3267 118.248 65.3267Z" fill="#E6E6E6"/>
<path d="M120.695 65.3267H119.775C119.691 65.3267 119.623 65.3946 119.623 65.4785V65.9079C119.623 65.9917 119.691 66.0597 119.775 66.0597H120.695C120.779 66.0597 120.847 65.9917 120.847 65.9079V65.4785C120.847 65.3946 120.779 65.3267 120.695 65.3267Z" fill="#E6E6E6"/>
<path d="M123.142 65.3267H122.222C122.138 65.3267 122.07 65.3946 122.07 65.4785V65.9079C122.07 65.9917 122.138 66.0597 122.222 66.0597H123.142C123.226 66.0597 123.294 65.9917 123.294 65.9079V65.4785C123.294 65.3946 123.226 65.3267 123.142 65.3267Z" fill="#E6E6E6"/>
<path d="M125.588 65.3267H124.669C124.585 65.3267 124.517 65.3946 124.517 65.4785V65.9079C124.517 65.9917 124.585 66.0597 124.669 66.0597H125.588C125.672 66.0597 125.741 65.9917 125.741 65.9079V65.4785C125.741 65.3946 125.672 65.3267 125.588 65.3267Z" fill="#E6E6E6"/>
<path d="M128.035 65.3267H127.116C127.032 65.3267 126.964 65.3946 126.964 65.4785V65.9079C126.964 65.9917 127.032 66.0597 127.116 66.0597H128.035C128.119 66.0597 128.187 65.9917 128.187 65.9079V65.4785C128.187 65.3946 128.119 65.3267 128.035 65.3267Z" fill="#E6E6E6"/>
<path d="M130.482 65.3267H129.563C129.479 65.3267 129.411 65.3946 129.411 65.4785V65.9079C129.411 65.9917 129.479 66.0597 129.563 66.0597H130.482C130.566 66.0597 130.634 65.9917 130.634 65.9079V65.4785C130.634 65.3946 130.566 65.3267 130.482 65.3267Z" fill="#E6E6E6"/>
<path d="M114.088 66.7927H104.605C104.521 66.7927 104.453 66.8607 104.453 66.9445V67.3739C104.453 67.4578 104.521 67.5257 104.605 67.5257H114.088C114.172 67.5257 114.24 67.4578 114.24 67.3739V66.9445C114.24 66.8607 114.172 66.7927 114.088 66.7927Z" fill="#E6E6E6"/>
<path d="M141.211 7.7557H78.7361C78.5989 7.75269 78.4901 7.63917 78.4931 7.50216C78.496 7.36938 78.6031 7.26244 78.7361 7.25952H141.211C141.348 7.26253 141.457 7.37605 141.454 7.51307C141.451 7.64584 141.344 7.75278 141.211 7.7557Z" fill="#CACACA"/>
<path d="M82.9887 5.99267C83.7928 5.99267 84.4447 5.32722 84.4447 4.50634C84.4447 3.68547 83.7928 3.02002 82.9887 3.02002C82.1846 3.02002 81.5327 3.68547 81.5327 4.50634C81.5327 5.32722 82.1846 5.99267 82.9887 5.99267Z" fill="#CCCCCC"/>
<path d="M88.0185 5.99267C88.8226 5.99267 89.4745 5.32722 89.4745 4.50634C89.4745 3.68547 88.8226 3.02002 88.0185 3.02002C87.2144 3.02002 86.5625 3.68547 86.5625 4.50634C86.5625 5.32722 87.2144 5.99267 88.0185 5.99267Z" fill="#CCCCCC"/>
<path d="M93.0484 5.99267C93.8525 5.99267 94.5044 5.32722 94.5044 4.50634C94.5044 3.68547 93.8525 3.02002 93.0484 3.02002C92.2443 3.02002 91.5924 3.68547 91.5924 4.50634C91.5924 5.32722 92.2443 5.99267 93.0484 5.99267Z" fill="#CCCCCC"/>
<path d="M80.6037 70.752H61.9175C60.5415 70.752 59.426 71.8658 59.426 73.2399C59.426 74.6139 60.5415 75.7278 61.9175 75.7278H68.7691V95.0093H73.7521V75.7278H80.6037C81.9797 75.7278 83.0951 74.6139 83.0951 73.2399C83.0951 71.8658 81.9797 70.752 80.6037 70.752Z" fill="#3F3D56"/>
<path d="M92.9369 105.688H42.9567C32.9414 105.651 24.4679 98.2862 23.0509 88.3857L21.2817 81.8873C17.6199 68.4213 12.0422 55.5495 4.71913 43.6654C1.37203 38.2374 -0.350715 32.9832 3.5622 27.9245C3.59551 27.8814 3.62828 27.8389 3.66049 27.797C6.79887 23.718 22.4196 22.835 27.5119 22.6632C27.7131 22.6564 27.9151 22.653 28.1178 22.6531H59.2049C59.4078 22.6531 59.6097 22.6565 59.8106 22.6632C65.4035 22.8261 70.4554 26.0415 72.9645 31.0354C75.6419 36.1341 75.3003 42.2888 72.0751 47.0608C61.155 63.441 57.8117 73.712 61.2346 80.3634C64.5456 86.7971 74.6949 90.0865 93.175 90.7148C98.1413 90.8837 100.42 94.7453 100.436 98.2616C100.452 101.687 98.2606 105.469 93.4127 105.678C93.2551 105.685 93.0965 105.688 92.9369 105.688Z" fill="#3F3D56"/>
<path d="M51.4473 150.004H70.1334C71.5094 150.004 72.6249 148.89 72.6249 147.516C72.6249 146.142 71.5094 145.028 70.1334 145.028H63.2819V103.044H58.2989V145.028H51.4473C50.0713 145.028 48.9558 146.142 48.9558 147.516C48.9558 148.89 50.0713 150.004 51.4473 150.004Z" fill="#3F3D56"/>
<path d="M68.36 133.079L71.579 134.825L80.1005 123.059L75.3492 120.482L68.36 133.079Z" fill="#FFB6B6"/>
<path d="M69.9095 128.886L75.7533 130.713L74.8232 133.158L78.8304 138.966C79.3431 139.709 79.1556 140.726 78.4117 141.238C77.9691 141.542 77.4048 141.61 76.9023 141.42L70.0994 138.839L69.8468 135.976L68.4689 138.22L65.9039 137.247L69.9095 128.886Z" fill="#2F2E41"/>
<path d="M76.4932 14.43C76.7816 16.404 75.4128 18.2376 73.4361 18.5255C73.2253 18.5562 73.0122 18.5683 72.7993 18.5615L60.3882 44.9322L56.4956 39.5117L69.2719 14.576C69.4682 12.5799 71.2478 11.1207 73.2467 11.3167C74.9192 11.4807 76.2614 12.7678 76.4932 14.43Z" fill="#FFB6B6"/>
<path d="M35.306 50.2639C35.306 50.2639 34.9734 54.8709 40.1909 55.7744C45.4084 56.678 59.3564 47.8705 61.6471 46.5182C63.9378 45.1658 68.2065 28.1508 68.2065 28.1508L64.4941 21.8806C59.9106 27.6703 56.3112 33.0092 56.0926 36.7989L35.306 50.2639Z" fill="#8075FF"/>
<path d="M41.3293 66.1329L42.4562 70.9676C42.4562 70.9676 42.4673 75.4256 43.2579 76.2476C44.043 77.0658 61.3073 75.423 61.3073 75.423C61.3073 75.423 59.4768 68.2392 59.5012 62.8035L41.3293 66.1329Z" fill="#FFB6B6"/>
<path d="M77.8007 127.975L71.572 124.554C71.4535 116.46 76.3286 105.508 82.1108 94.0353C69.1791 96.2562 56.9792 96.9677 46.4268 94.2811C42.8221 93.3305 40.6496 89.666 41.5488 86.0529C41.5899 85.8825 41.6374 85.7138 41.6913 85.5469C42.9542 81.6992 40.1224 79.2873 42.727 75.0553C49.5775 72.719 56.0852 72.0593 62.0361 74.1223L65.7647 82.3547L84.2461 79.9665C87.9831 79.5204 91.3749 82.1839 91.8216 85.9157C91.8237 85.9327 91.8256 85.9497 91.8275 85.9667C91.8524 86.167 91.8686 86.3682 91.8762 86.5702C88.1393 104.064 83.949 119.805 77.8007 127.975Z" fill="#2F2E41"/>
<path d="M38.8206 35.5241L45.9404 35.1043C46.5558 35.068 47.1266 35.4256 47.3617 35.9948L49.3737 40.8654L57.7358 47.767C57.7358 47.767 61.0466 51.9741 61.0543 57.4075C61.062 62.8408 62.229 75.417 62.229 75.417C62.229 75.417 57.397 68.6253 54.4147 70.4317C53.9073 70.739 53.7288 71.3675 53.1973 71.6851C52.9322 71.8435 52.3198 71.6895 52.052 71.8482C47.9424 74.2843 43.6564 76.6644 43.256 76.247C42.4697 75.4277 41.5159 71.2408 41.5159 71.2408L34.9987 47.3295C34.2833 44.7821 34.7459 42.0487 36.2598 39.8776C36.7151 39.2375 37.1921 38.7612 37.6355 38.6825C38.6309 38.4708 38.1014 36.2431 38.8206 35.5241Z" fill="#8075FF"/>
<path d="M99.3853 143.207L102.391 141.121L95.5823 128.294L91.1469 131.373L99.3853 143.207Z" fill="#FFB6B6"/>
<path d="M99.8396 134.601L95.1295 138.805C87.6402 130.472 81.9785 118.784 77.1804 105.512C64.6091 101.836 55.1286 95.9062 46.8522 88.8659C44.0445 86.4935 41.9398 83.4457 44.3344 80.5558C44.4463 80.4207 44.5632 80.29 44.6851 80.1638C47.5124 77.2623 54.6823 77.8152 58.8817 75.157L68.2626 85.1698L67.6725 87.8542L85.2927 93.8143C88.8398 95.0557 90.7075 98.9334 89.4644 102.475C89.4583 102.493 89.4521 102.51 89.4459 102.527C89.3799 102.718 89.3058 102.906 89.2237 103.091L99.8396 134.601Z" fill="#2F2E41"/>
<path d="M97.6329 142.361L102.444 138.578L103.939 140.725L111.001 140.704C111.905 140.701 112.64 141.43 112.642 142.332C112.644 142.869 112.382 143.372 111.94 143.679L105.965 147.827L103.456 146.417L104.533 148.821L102.28 150.385L97.6329 142.361Z" fill="#2F2E41"/>
<path d="M49.3342 95.7846C47.4953 95.0052 46.6373 92.8848 47.4178 91.0485C47.501 90.8527 47.6014 90.6647 47.7177 90.4865L31.5996 66.1975L38.2601 65.6919L52.9606 89.5471C54.5667 90.7515 54.8909 93.0279 53.6848 94.6317C52.6756 95.9737 50.8769 96.4503 49.3342 95.7846Z" fill="#FFB6B6"/>
<path d="M40.0667 42.0258C40.0667 42.0258 36.2973 39.3488 32.8137 43.3314C29.3302 47.3139 29.6211 63.7905 29.5883 66.4476C29.5781 67.2796 30.7813 69.075 32.4389 71.1487C33.1831 72.0797 34.0189 73.0669 34.8777 74.0481C35.3746 74.616 34.9464 75.7979 35.4454 76.3498C35.9417 76.8988 37.3652 76.8178 37.8372 77.3272C40.0777 79.7453 41.8979 81.586 41.8979 81.586L49.1918 81.6755C49.2741 76.2611 45.5609 71.4281 40.7906 66.7571L40.0667 42.0258Z" fill="#8075FF"/>
<path d="M32.7147 18.4518C32.0241 18.9495 31.2976 19.4622 30.455 19.5856C29.6124 19.7089 28.6259 19.3021 28.3927 18.4842C28.1076 17.4842 29.0119 16.5736 29.8247 15.9236L32.4021 13.8627C32.8741 13.4447 33.407 13.1007 33.9824 12.8424C34.5679 12.5852 35.2387 12.6076 35.8056 12.9033C36.3689 13.2831 36.6946 13.9274 36.6662 14.6055C36.6294 15.2739 36.4085 15.9192 36.0278 16.4701C35.061 17.975 33.5209 19.0204 31.764 19.3645" fill="#2F2E41"/>
<path d="M52.263 71.9961H33.5768C32.2008 71.9961 31.0853 73.11 31.0853 74.484C31.0853 75.8581 32.2008 76.972 33.5768 76.972H40.4284V96.2535H45.4114V76.972H52.263C53.639 76.972 54.7544 75.8581 54.7544 74.484C54.7544 73.11 53.639 71.9961 52.263 71.9961Z" fill="#3F3D56"/>
<path d="M33.8595 13.2319C33.9347 11.3665 31.9441 9.88947 30.0787 10.0062C28.2134 10.123 26.6099 11.4332 25.5521 12.9724C24.4946 14.5103 23.8593 16.2916 23.0262 17.9614C22.1931 19.6312 21.0836 21.2661 19.4281 22.1314C17.7729 22.9955 15.4688 22.8413 14.3248 21.3661C13.6033 22.4586 13.4464 23.8291 13.9023 25.0561C14.3707 26.2672 15.2441 27.2793 16.3745 27.9206C16.8245 28.1871 17.3051 28.3981 17.8059 28.5491C18.0124 27.9926 18.3029 27.4708 18.6674 27.002C18.5028 27.557 18.4399 28.1372 18.4819 28.7145C19.2538 28.8623 20.0478 28.8498 20.8146 28.6778C22.3415 28.3368 23.618 27.2972 24.2597 25.8723C24.9593 24.2185 24.603 22.3329 24.7526 20.544C24.9009 18.7547 25.9807 16.7122 27.7785 16.683C29.1477 16.6605 28.9665 16.7732 29.834 17.8311" fill="#2F2E41"/>
<path d="M46.2923 23.034C46.2923 27.4997 42.667 31.1198 38.1949 31.1198C33.7229 31.1198 29.4747 25.9447 29.4747 21.4791C29.4747 17.0134 33.7229 14.9482 38.1949 14.9482C42.667 14.9482 46.2923 18.5684 46.2923 23.034Z" fill="#2F2E41"/>
<path d="M42.1852 32.7238C46.3651 31.8697 49.0602 27.7937 48.2049 23.6198C47.3496 19.4458 43.2678 16.7545 39.0879 17.6086C34.908 18.4627 32.2129 22.5387 33.0682 26.7126C33.9235 30.8866 38.0053 33.5779 42.1852 32.7238Z" fill="#FFB6B6"/>
<path d="M50.341 23.967C48.0541 24.5905 45.7451 25.2441 44.8535 23.967C44.6802 23.1202 44.3518 22.3126 43.8849 21.5848C43.7971 22.3998 43.6056 23.2003 43.315 23.967C40.4258 24.5941 37.7255 24.744 35.3921 23.967C35.0712 24.5465 34.885 25.1905 34.847 25.8516C34.7317 25.7792 34.6109 25.7158 34.4858 25.6619C34.3357 25.5772 34.1563 25.5613 33.9937 25.6184C33.8812 25.6862 33.8065 25.8021 33.7913 25.9325C33.7758 26.0622 33.7821 26.1936 33.81 26.3212C33.8427 26.766 33.9757 27.1977 34.1993 27.5838C34.378 27.8528 34.6616 28.0344 34.981 28.0845C35.3049 29.9038 37.8836 32.3638 37.8836 32.3638C30.0977 32.6748 30.0977 27.4003 30.0977 22.412L31.032 20.5461H34.1463V16.5032H42.8665C46.9941 16.5042 50.3399 19.8453 50.341 23.967Z" fill="#2F2E41"/>
<path d="M124.42 39.2857H97.6511C95.3261 39.2831 93.442 37.4017 93.4395 35.08V17.368C93.442 15.0464 95.3262 13.1649 97.6511 13.1624H124.42C126.745 13.1649 128.629 15.0464 128.632 17.368V35.08C128.629 37.4017 126.745 39.2831 124.42 39.2857ZM97.6511 13.7843C95.67 13.7866 94.0646 15.3898 94.0623 17.368V35.08C94.0646 37.0583 95.67 38.6615 97.6511 38.6637H124.42C126.401 38.6615 128.007 37.0583 128.009 35.08V17.368C128.007 15.3897 126.401 13.7866 124.42 13.7843L97.6511 13.7843Z" fill="#E6E6E6"/>
<path d="M105.583 18.7603H98.4224V19.3822H105.583V18.7603Z" fill="#E6E6E6"/>
<path d="M114.306 21.2483H98.4224V21.8703H114.306V21.2483Z" fill="#E6E6E6"/>
<path d="M114.306 23.4253H98.4224V24.0473H114.306V23.4253Z" fill="#E6E6E6"/>
<path d="M118.666 25.6021H98.4224V26.224H118.666V25.6021Z" fill="#E6E6E6"/>
<path d="M109.011 27.7791H98.4224V28.401H109.011V27.7791Z" fill="#E6E6E6"/>
<path d="M117.731 29.9561H98.4224V30.578H117.731V29.9561Z" fill="#E6E6E6"/>
<path d="M101.848 32.1331H98.4224V32.755H101.848V32.1331Z" fill="#E6E6E6"/>
<path d="M98.1893 5.37476C98.1591 5.37476 98.1289 5.36307 98.1061 5.33978L97.4415 4.66146C97.3973 4.61626 97.3973 4.54403 97.4415 4.49883L98.1061 3.82057C98.1511 3.77468 98.225 3.77395 98.2707 3.81875C98.3167 3.86367 98.3175 3.93731 98.2726 3.98319L97.6877 4.58015L98.2726 5.17716C98.3175 5.22304 98.3167 5.29669 98.2707 5.3416C98.2481 5.36375 98.2187 5.37476 98.1893 5.37476Z" fill="#CCCCCC"/>
<path d="M99.3059 5.37461C99.2765 5.37461 99.2471 5.36359 99.2245 5.34145C99.1785 5.29653 99.1777 5.22294 99.2227 5.177L99.8075 4.57999L99.2227 3.98303C99.1777 3.93715 99.1785 3.86351 99.2245 3.81859C99.2704 3.77362 99.3442 3.77447 99.3892 3.82041L100.054 4.49867C100.098 4.54387 100.098 4.6161 100.054 4.6613L99.3892 5.33963C99.3664 5.36291 99.3362 5.37461 99.3059 5.37461Z" fill="#CCCCCC"/>
<path d="M134.069 3.69116H132.834C132.693 3.69116 132.579 3.80513 132.579 3.94584V5.18085C132.579 5.32156 132.693 5.43553 132.834 5.43553H134.069C134.21 5.43553 134.326 5.32156 134.326 5.18085V3.94584C134.326 3.80513 134.21 3.69116 134.069 3.69116Z" fill="#CCCCCC"/>
<path d="M131.041 3.69116H129.806C129.665 3.69116 129.551 3.80513 129.551 3.94584V5.18085C129.551 5.32156 129.665 5.43553 129.806 5.43553H131.041C131.182 5.43553 131.298 5.32156 131.298 5.18085V3.94584C131.298 3.80513 131.182 3.69116 131.041 3.69116Z" fill="#CCCCCC"/>
<path d="M136.923 3.74927H135.687C135.546 3.74927 135.432 3.86323 135.432 4.00395V5.23895C135.432 5.37967 135.546 5.49363 135.687 5.49363H136.923C137.063 5.49363 137.179 5.37967 137.179 5.23895V4.00395C137.179 3.86323 137.063 3.74927 136.923 3.74927Z" fill="#CCCCCC"/>
<path d="M118.299 4.21899H108.422C108.25 4.21899 108.111 4.35855 108.111 4.5295C108.111 4.70044 108.25 4.83999 108.422 4.83999H118.299C118.47 4.83999 118.61 4.70044 118.61 4.5295C118.61 4.35855 118.47 4.21899 118.299 4.21899Z" fill="#CCCCCC"/>
</svg>
