<svg width="143" height="151" viewBox="0 0 143 151" fill="none" xmlns="http://www.w3.org/2000/svg">
<g clip-path="url(#clip0_5_1807)">
<path d="M32.8953 96.0703C32.6549 96.0813 32.417 96.0184 32.2138 95.8902C32.0105 95.7619 31.8518 95.5745 31.7589 95.3533C31.6661 95.1322 31.6438 94.8879 31.695 94.6536C31.7461 94.4193 31.8683 94.2064 32.045 94.0437C32.0745 93.9265 32.0958 93.8423 32.1253 93.7251C32.1148 93.6996 32.1041 93.6741 32.0934 93.6487C31.8513 93.0788 31.4456 92.5929 30.9273 92.252C30.4091 91.9112 29.8013 91.7305 29.1803 91.7328C28.5593 91.7351 27.9529 91.9203 27.4372 92.2649C26.9214 92.6096 26.5194 93.0985 26.2816 93.6702C25.331 95.9518 24.1208 98.2373 23.8228 100.65C23.6915 101.716 23.7469 102.797 23.9864 103.845C21.7538 98.991 20.5945 93.7156 20.587 88.3763C20.5866 87.0365 20.6613 85.6976 20.8108 84.3661C20.9343 83.2745 21.1058 82.1907 21.325 81.1147C22.5217 75.2762 25.0909 69.8039 28.8217 65.1472C30.6273 64.1653 32.0876 62.6553 33.0057 60.8208C33.3383 60.1614 33.5734 59.4575 33.7036 58.7309C33.5 58.7575 33.2929 58.7742 33.0892 58.7875C33.0258 58.7908 32.959 58.7941 32.8955 58.7974L32.8716 58.7985C32.6478 58.8085 32.4258 58.7538 32.2324 58.641C32.0389 58.5282 31.8824 58.3621 31.7815 58.1627C31.6806 57.9632 31.6398 57.739 31.6638 57.517C31.6878 57.2949 31.7757 57.0845 31.9169 56.9111C32.0049 56.8033 32.0929 56.6954 32.1809 56.5877C32.3145 56.4213 32.4514 56.2582 32.585 56.0918C32.6004 56.076 32.6149 56.0593 32.6284 56.0419C32.782 55.8522 32.9356 55.6658 33.0892 55.4761C32.8088 55.0424 32.4317 54.6791 31.9873 54.4145C30.4479 53.516 28.3241 54.1383 27.2121 55.5261C26.0968 56.9138 25.8864 58.8607 26.2738 60.5945C26.6547 62.0699 27.2848 63.4699 28.1371 64.7345C28.0536 64.841 27.9668 64.9442 27.8833 65.0507C26.3572 67.0063 25.0272 69.1063 23.9122 71.3206C24.1833 68.84 23.8597 66.3307 22.9679 63.999C22.0641 61.826 20.37 59.996 18.8782 58.1174C17.0862 55.861 13.4117 56.8458 13.096 59.7061C13.0929 59.7338 13.0899 59.7615 13.087 59.7892C13.3086 59.9138 13.5255 60.046 13.7378 60.1859C14.0044 60.3634 14.2109 60.617 14.3304 60.9136C14.4499 61.2101 14.4768 61.5357 14.4074 61.8477C14.338 62.1597 14.1757 62.4435 13.9418 62.662C13.7078 62.8805 13.413 63.0235 13.0961 63.0722L13.0637 63.0772C13.1426 63.8731 13.2821 64.6619 13.4811 65.4367C14.0575 67.5998 15.0761 69.6209 16.473 71.3732C17.8699 73.1256 19.6149 74.5715 21.5988 75.6202C21.729 75.6868 21.8559 75.7534 21.9862 75.8166C20.8659 78.9805 20.1632 82.2762 19.8958 85.6207C19.7444 87.5939 19.7533 89.5761 19.9225 91.5478L19.9125 91.4779C19.485 89.2854 18.3114 87.307 16.5899 85.877C14.033 83.7837 10.4206 83.0129 7.66214 81.3303C7.36898 81.1427 7.02812 81.0425 6.67974 81.0417C6.33136 81.0409 5.99001 81.1393 5.69594 81.3255C5.40187 81.5116 5.16735 81.7777 5.02003 82.0924C4.87272 82.407 4.81876 82.757 4.86452 83.1012C4.86822 83.1257 4.87198 83.1502 4.8758 83.1747C5.287 83.3416 5.68737 83.5339 6.07458 83.7504C6.29617 83.875 6.51308 84.0072 6.72531 84.1471C6.99192 84.3246 7.19851 84.5783 7.318 84.8748C7.43749 85.1714 7.46432 85.497 7.39496 85.809C7.32561 86.1209 7.1633 86.4048 6.92932 86.6233C6.69533 86.8418 6.40058 86.9847 6.08367 87.0334L6.05121 87.0384C6.02783 87.0417 6.0078 87.0451 5.98446 87.0484C6.68705 88.7203 7.67316 90.2592 8.89961 91.5977C10.4147 93.2179 12.2459 94.5127 14.2808 95.4025C16.3158 96.2924 18.5117 96.7586 20.734 96.7727H20.7373C21.3405 99.3851 22.2146 101.928 23.3453 104.36H32.6618C32.6952 104.257 32.7252 104.151 32.7553 104.048C31.893 104.102 31.0272 104.05 30.1774 103.894C30.8686 103.049 31.5598 102.197 32.2511 101.352C32.2665 101.336 32.281 101.319 32.2945 101.302C32.6451 100.869 32.9991 100.44 33.3497 100.007L33.3499 100.007C33.3686 98.6808 33.2159 97.3578 32.8955 96.0705L32.8953 96.0703Z" fill="#F2F2F2"/>
<path d="M142.766 104.486C142.766 104.537 142.756 104.587 142.737 104.633C142.717 104.68 142.689 104.723 142.653 104.759C142.617 104.794 142.574 104.823 142.528 104.842C142.481 104.861 142.43 104.871 142.379 104.871H0.386407C0.283926 104.871 0.185646 104.83 0.11318 104.758C0.040715 104.686 0 104.588 0 104.486C0 104.384 0.040715 104.286 0.11318 104.214C0.185646 104.141 0.283926 104.101 0.386407 104.101H142.38C142.43 104.101 142.481 104.111 142.528 104.13C142.575 104.149 142.617 104.178 142.653 104.213C142.689 104.249 142.717 104.292 142.737 104.338C142.756 104.385 142.766 104.435 142.766 104.486Z" fill="#CCCCCC"/>
<path d="M74.3532 55.0185C73.8184 54.8909 73.2621 54.8818 72.7234 54.9917C72.1847 55.1016 71.6768 55.3279 71.2354 55.6546C70.7939 55.9814 70.4297 56.4006 70.1684 56.8828C69.9072 57.3649 69.7551 57.8983 69.7231 58.4454L61.6057 61.2608L62.1193 66.5943L73.5266 62.4579C74.4523 62.4507 75.3432 62.1053 76.0305 61.4872C76.7178 60.869 77.1537 60.0211 77.2555 59.1041C77.3574 58.1871 77.1183 57.2647 76.5833 56.5116C76.0484 55.7586 75.2549 55.2274 74.3532 55.0185Z" fill="#FFB6B6"/>
<path d="M61.1238 70.5207C57.8961 72.7627 52.2098 73.9096 44.4708 73.857C44.0423 73.8582 43.6183 73.7706 43.2255 73.6C42.8328 73.4293 42.4799 73.1792 42.1892 72.8655C40.1184 70.7164 40.1993 65.8108 40.2122 65.337L37.9425 56.8122C37.8938 56.6819 36.6375 53.184 37.9156 50.7415C38.1876 50.2312 38.5671 49.7858 39.0282 49.4356C39.4892 49.0854 40.0209 48.8388 40.5866 48.7128C45.3867 47.4434 49.8989 60.2485 50.4723 61.9406L57.2084 60.7973L61.8603 60.6067L66.5932 58.0031L69.2579 64.3588L62.6635 69.1616C62.2086 69.6763 61.6914 70.1328 61.1238 70.5207Z" fill="#2F2E41"/>
<path d="M74.1212 141.008L79.0832 141.239L82.3387 122.275L75.0155 121.934L74.1212 141.008Z" fill="#FFB6B6"/>
<path d="M73.0052 138.511L80.8709 138.41L80.7137 141.759L87.9301 147.24C88.2865 147.51 88.5469 147.887 88.673 148.316C88.7992 148.745 88.7846 149.202 88.6314 149.622C88.4783 150.041 88.1945 150.401 87.8215 150.649C87.4485 150.896 87.0059 151.019 86.5583 150.998L77.2201 150.563L75.7659 147.175L74.982 150.458L71.4611 150.294L73.0052 138.511Z" fill="#2F2E41"/>
<path d="M125.927 100.29L127.735 95.6787L110.749 86.5356L102.168 91.9108L125.927 100.29Z" fill="#FFB6B6"/>
<path d="M123.196 100.545L125.617 93.0855L128.751 94.3058L136.27 89.246C136.642 88.996 137.083 88.8709 137.531 88.8889C137.979 88.9069 138.409 89.0671 138.759 89.346C139.109 89.625 139.36 90.0081 139.476 90.4395C139.592 90.8709 139.567 91.3279 139.404 91.7439L136.001 100.422L132.315 100.71L135.186 102.502L133.903 105.773L123.196 100.545Z" fill="#2F2E41"/>
<path d="M28.346 86.5664C28.346 86.5664 30.4067 99.6778 40.1481 100.649C49.8894 101.619 58.8688 97.2456 58.8688 97.2456L86.1446 88.8737C86.1446 88.8737 115.156 97.0889 120.027 98.3833C120.027 98.3833 123.387 90.7835 123.274 90.293C122.238 85.7761 120.889 88.8317 120.889 88.8317L90.0411 75.24C90.0411 75.24 85.1705 73.9455 76.728 77.5053C68.2855 81.065 45.6682 89.6458 45.6682 89.6458L28.346 86.5664Z" fill="#2F2E41"/>
<path d="M28.4585 85.7625C28.4585 85.7625 26.8339 101.469 36.3231 103.869C45.3435 106.15 57.7859 103.81 57.7859 103.81L72.6192 102.267C72.6192 102.267 73.2686 121.261 73.2686 130.646C76.2824 131.054 79.3192 131.27 82.3606 131.293C83.01 131.293 83.0531 130.954 83.0531 130.954L84.3106 98.1257C84.3989 96.6984 84.1864 95.2684 83.6868 93.9279C83.1872 92.5874 82.4115 91.3659 81.4097 90.3422C80.4079 89.3184 79.2021 88.5151 77.8699 87.9837C76.5378 87.4524 75.1088 87.2049 73.6749 87.2572C72.9746 87.2838 72.2401 87.3332 71.4712 87.4055C62.3461 88.2775 51.0175 86.4237 51.0175 86.4237L28.4585 85.7625Z" fill="#2F2E41"/>
<path d="M54.779 62.9763C54.779 62.9763 58.6313 86.1935 56.0279 88.0468C53.4245 89.9002 49.8543 89.9075 49.8543 89.9075L49.0242 77.0884L54.779 62.9763Z" fill="#2F2E41"/>
<path d="M48.3539 34.4624L53.5047 39.3403C55.8988 41.6076 57.4857 44.591 58.0248 47.8383C58.5639 51.0855 58.0257 54.4194 56.492 57.3343L54.0298 62.0136L48.3539 34.4624Z" fill="#2F2E41"/>
<path d="M47.2021 35.2827L54.1814 43.2054C55.7131 44.9442 56.6623 47.116 56.8967 49.418C57.0031 50.4633 56.9603 51.5183 56.7696 52.5516L54.1394 66.8016L52.1624 87.3805C52.1624 87.3805 36.8999 91.9892 35.3377 84.8726C33.7755 77.7559 47.2021 35.2827 47.2021 35.2827Z" fill="#6C63FF"/>
<path d="M40.6509 89.3146C30.6179 87.6483 28.1602 87.3175 28.0072 87.2592L27.8538 87.2009L28.8594 81.1869L33.1059 70.7876C33.3817 67.3859 35.1703 62.7768 34.1471 59.0747C31.1724 48.3124 36.0052 33.1039 38.2153 31.9389L44.3424 27.9358L46.4931 29.901L50.2223 35.1037C53.2905 48.7249 55.4096 61.4207 55.3065 62.1967L53.4128 75.5317L51.1814 80.6468C44.4119 83.9021 48.964 90.6953 40.6509 89.3146Z" fill="#2F2E41"/>
<path d="M58.8154 79.5316L74.5685 75.3312L75.9555 75.0034L76.9445 74.7693L78.0971 74.4977L78.1063 74.4956C78.2738 74.4575 78.4496 74.4866 78.5957 74.5767L84.4449 81.566C84.4978 81.5985 84.5445 81.6402 84.5825 81.6892C84.5982 81.7018 84.6122 81.7165 84.6241 81.7328C84.6889 81.8208 84.7309 81.9233 84.7465 82.0313C84.7621 82.1393 84.7508 82.2495 84.7137 82.3521C84.6765 82.4547 84.6145 82.5467 84.5333 82.6198C84.4521 82.693 84.3541 82.7451 84.2479 82.7716L60.7475 88.1614C60.6257 88.1889 60.4986 88.1815 60.3809 88.14C60.2632 88.0986 60.1596 88.0248 60.0821 87.9272L59.8437 87.6193L58.5432 81.3782L58.4507 80.5678C58.3917 80.4928 58.35 80.4058 58.3287 80.3129C58.2909 80.1451 58.3207 79.9692 58.4118 79.8231C58.5028 79.6769 58.6477 79.5723 58.8154 79.5316Z" fill="#E6E6E6"/>
<path opacity="0.17" d="M59.8435 87.6187L60.0834 87.9276C60.1607 88.0249 60.264 88.0985 60.3814 88.14C60.4988 88.1814 60.6256 88.1889 60.7471 88.1618L84.2482 82.7717C84.3544 82.7454 84.4525 82.6933 84.5337 82.6202C84.6149 82.5471 84.6768 82.4552 84.7139 82.3526C84.751 82.25 84.7622 82.1399 84.7465 82.0319C84.7308 81.924 84.6886 81.8216 84.6238 81.7337C84.6124 81.7171 84.5986 81.7024 84.5827 81.6899L59.8435 87.6187Z" fill="black"/>
<path d="M77.9798 74.452L77.5547 44.594C77.5369 44.4143 77.5914 44.2348 77.7063 44.0951L80.7176 37.849L81.0304 37.4702C81.1467 37.3317 81.3129 37.2441 81.4932 37.2263L82.1487 37.1654C82.3292 37.1477 82.5094 37.2022 82.6496 37.3169C82.7899 37.4317 82.8786 37.5972 82.8964 37.7772L83.4866 69.3693L83.4872 69.3716L83.7796 72.4135L84.1261 76.0256L84.1272 76.0302L84.6681 81.6501C84.6782 81.7462 84.6673 81.8434 84.6361 81.9349C84.6049 82.0263 84.5541 82.11 84.4872 82.18C84.422 82.2509 84.3424 82.3072 84.2537 82.345C84.165 82.3829 84.0692 82.4014 83.9727 82.3995L83.5462 82.391C83.3827 82.3867 83.2258 82.3251 83.1034 82.2169L82.8648 82.0033L82.7543 81.9029L78.206 74.8958C78.0768 74.7818 77.996 74.6232 77.9798 74.452Z" fill="#E6E6E6"/>
<path opacity="0.17" d="M80.7188 37.849L82.7538 81.9041L82.8651 82.0032L83.1029 82.2162C83.2252 82.3246 83.3822 82.3864 83.5459 82.3904L83.973 82.3989C84.0696 82.4006 84.1654 82.3818 84.2543 82.344C84.3431 82.3062 84.423 82.2501 84.4886 82.1794C84.5542 82.1087 84.6041 82.0251 84.6351 81.9339C84.6661 81.8427 84.6774 81.746 84.6683 81.6501L82.8956 37.7782C82.8782 37.5981 82.7898 37.4323 82.6498 37.3172C82.5098 37.2021 82.3297 37.147 82.149 37.1642L81.4923 37.2269C81.4031 37.2351 81.3164 37.2609 81.2374 37.3028C81.1583 37.3447 81.0884 37.4019 81.0317 37.471L80.7188 37.849Z" fill="black"/>
<path d="M80.8899 39.6292L78.136 46.404L78.4766 66.6708L81.4581 70.968L80.8899 39.6292Z" fill="#6C63FF"/>
<path d="M60.6309 79.3528C60.4802 79.3956 60.3527 79.4963 60.2765 79.6328C60.2002 79.7693 60.1815 79.9303 60.2243 80.0806L61.4376 85.1196L62.5744 84.797L61.3611 79.758C61.3182 79.6078 61.2171 79.4807 61.0802 79.4047C60.9432 79.3287 60.7816 79.3101 60.6309 79.3528Z" fill="#2F2E41"/>
<path d="M62.9044 78.7078C62.7537 78.7506 62.6263 78.8513 62.55 78.9878C62.4738 79.1243 62.4551 79.2853 62.4979 79.4355L62.7569 80.3419L63.8937 80.0193L63.6347 79.113C63.5917 78.9627 63.4907 78.8357 63.3537 78.7597C63.2168 78.6837 63.0552 78.665 62.9044 78.7078Z" fill="#2F2E41"/>
<path d="M65.178 78.0625C65.0273 78.1053 64.8998 78.2061 64.8236 78.3425C64.7474 78.479 64.7286 78.64 64.7715 78.7903L65.0305 79.6966L66.1672 79.374L65.9083 78.4677C65.8653 78.3175 65.7643 78.1904 65.6273 78.1144C65.4904 78.0385 65.3288 78.0198 65.178 78.0625Z" fill="#2F2E41"/>
<path d="M67.4516 77.4172C67.3009 77.4601 67.1734 77.5608 67.0972 77.6973C67.0209 77.8337 67.0022 77.9948 67.0451 78.145L67.304 79.0514L68.4408 78.7288L68.1819 77.8224C68.1389 77.6722 68.0378 77.5452 67.9009 77.4692C67.764 77.3932 67.6023 77.3745 67.4516 77.4172Z" fill="#2F2E41"/>
<path d="M69.7252 76.772C69.5745 76.8148 69.447 76.9155 69.3708 77.052C69.2945 77.1885 69.2758 77.3495 69.3187 77.4998L69.5776 78.4061L70.7144 78.0835L70.4554 77.1771C70.4125 77.0269 70.3114 76.8999 70.1745 76.8239C70.0375 76.7479 69.8759 76.7293 69.7252 76.772Z" fill="#2F2E41"/>
<path d="M71.9988 76.127C71.848 76.1698 71.7206 76.2705 71.6443 76.407C71.5681 76.5435 71.5494 76.7045 71.5922 76.8547L71.8512 77.7611L72.988 77.4385L72.729 76.5321C72.686 76.3819 72.585 76.2549 72.448 76.1789C72.3111 76.1029 72.1495 76.0842 71.9988 76.127Z" fill="#2F2E41"/>
<path d="M74.2723 75.4817C74.1216 75.5245 73.9941 75.6253 73.9179 75.7617C73.8417 75.8982 73.8229 76.0592 73.8658 76.2095L74.1247 77.1158L75.2615 76.7932L75.0026 75.8869C74.9596 75.7367 74.8585 75.6096 74.7216 75.5336C74.5847 75.4577 74.4231 75.439 74.2723 75.4817Z" fill="#2F2E41"/>
<path d="M76.5459 74.8364C76.3952 74.8793 76.2677 74.98 76.1915 75.1165C76.1152 75.2529 76.0965 75.414 76.1394 75.5642L76.3983 76.4706L77.5351 76.1479L77.2762 75.2416C77.2332 75.0914 77.1321 74.9643 76.9952 74.8884C76.8583 74.8124 76.6967 74.7937 76.5459 74.8364Z" fill="#2F2E41"/>
<path d="M63.3816 80.7739C63.2309 80.8168 63.1034 80.9175 63.0272 81.0539C62.9509 81.1904 62.9322 81.3515 62.9751 81.5017L63.234 82.4081L64.3708 82.0854L64.1118 81.1791C64.0689 81.0289 63.9678 80.9018 63.8309 80.8259C63.694 80.7499 63.5323 80.7312 63.3816 80.7739Z" fill="#2F2E41"/>
<path d="M65.6552 80.1289C65.5045 80.1717 65.377 80.2725 65.3007 80.4089C65.2245 80.5454 65.2058 80.7064 65.2486 80.8567L65.5076 81.763L66.6444 81.4404L66.3854 80.5341C66.3424 80.3839 66.2414 80.2568 66.1044 80.1809C65.9675 80.1049 65.8059 80.0862 65.6552 80.1289Z" fill="#2F2E41"/>
<path d="M67.9288 79.4836C67.778 79.5265 67.6506 79.6272 67.5743 79.7637C67.4981 79.9001 67.4793 80.0612 67.5222 80.2114L67.7812 81.1178L68.9179 80.7952L68.659 79.8888C68.616 79.7386 68.515 79.6116 68.378 79.5356C68.2411 79.4596 68.0795 79.4409 67.9288 79.4836Z" fill="#2F2E41"/>
<path d="M70.2023 78.8384C70.0516 78.8812 69.9241 78.9819 69.8479 79.1184C69.7716 79.2549 69.7529 79.4159 69.7958 79.5661L70.0547 80.4725L71.1915 80.1499L70.9326 79.2436C70.8896 79.0934 70.7885 78.9663 70.6516 78.8903C70.5147 78.8143 70.3531 78.7957 70.2023 78.8384Z" fill="#2F2E41"/>
<path d="M72.4759 78.1931C72.3252 78.236 72.1977 78.3367 72.1215 78.4731C72.0452 78.6096 72.0265 78.7707 72.0694 78.9209L72.3283 79.8272L73.4651 79.5047L73.2061 78.5983C73.1632 78.4481 73.0621 78.321 72.9252 78.2451C72.7882 78.1691 72.6266 78.1504 72.4759 78.1931Z" fill="#2F2E41"/>
<path d="M74.7495 77.5481C74.5987 77.5909 74.4713 77.6917 74.395 77.8281C74.3188 77.9646 74.3001 78.1256 74.3429 78.2759L74.6019 79.1822L75.7387 78.8596L75.4797 77.9533C75.4367 77.8031 75.3357 77.676 75.1987 77.6C75.0618 77.5241 74.9002 77.5054 74.7495 77.5481Z" fill="#2F2E41"/>
<path d="M77.023 76.9028C76.8723 76.9457 76.7449 77.0464 76.6686 77.1829C76.5924 77.3193 76.5736 77.4804 76.6165 77.6306L76.8755 78.537L78.0122 78.2144L77.7533 77.308C77.7103 77.1578 77.6093 77.0307 77.4723 76.9548C77.3354 76.8788 77.1738 76.8601 77.023 76.9028Z" fill="#2F2E41"/>
<path d="M63.8587 82.8403C63.708 82.8832 63.5805 82.9839 63.5043 83.1204C63.4281 83.2568 63.4093 83.4179 63.4522 83.5681L63.7112 84.4745L64.8479 84.1519L64.589 83.2455C64.546 83.0953 64.445 82.9682 64.308 82.8923C64.1711 82.8163 64.0095 82.7976 63.8587 82.8403Z" fill="#2F2E41"/>
<path d="M66.1323 82.1951C65.9816 82.2379 65.8541 82.3386 65.7779 82.4751C65.7017 82.6116 65.6829 82.7726 65.7258 82.9229L65.9847 83.8292L67.1215 83.5066L66.8626 82.6002C66.8196 82.45 66.7185 82.323 66.5816 82.247C66.4447 82.171 66.2831 82.1524 66.1323 82.1951Z" fill="#2F2E41"/>
<path d="M68.4059 81.5501C68.2552 81.5929 68.1277 81.6936 68.0515 81.8301C67.9752 81.9665 67.9565 82.1276 67.9994 82.2778L68.2583 83.1842L69.3951 82.8616L69.1361 81.9552C69.0932 81.805 68.9921 81.678 68.8552 81.602C68.7182 81.526 68.5566 81.5073 68.4059 81.5501Z" fill="#2F2E41"/>
<path d="M70.6795 80.9048C70.5288 80.9476 70.4013 81.0483 70.325 81.1848C70.2488 81.3213 70.2301 81.4823 70.2729 81.6326L70.5319 82.5389L71.6687 82.2163L71.4097 81.31C71.3667 81.1598 71.2657 81.0327 71.1288 80.9567C70.9918 80.8807 70.8302 80.8621 70.6795 80.9048Z" fill="#2F2E41"/>
<path d="M72.953 80.2595C72.8023 80.3024 72.6748 80.4031 72.5986 80.5396C72.5224 80.676 72.5036 80.8371 72.5465 80.9873L72.8054 81.8936L73.9422 81.571L73.6833 80.6647C73.6403 80.5145 73.5393 80.3874 73.4023 80.3115C73.2654 80.2355 73.1038 80.2168 72.953 80.2595Z" fill="#2F2E41"/>
<path d="M75.2266 79.6145C75.0759 79.6573 74.9484 79.7581 74.8722 79.8945C74.796 80.031 74.7772 80.192 74.8201 80.3423L75.079 81.2486L76.2158 80.926L75.9569 80.0197C75.9139 79.8695 75.8128 79.7424 75.6759 79.6665C75.539 79.5905 75.3774 79.5718 75.2266 79.6145Z" fill="#2F2E41"/>
<path d="M77.5002 78.9692C77.3495 79.0121 77.222 79.1128 77.1458 79.2493C77.0695 79.3857 77.0508 79.5468 77.0936 79.697L77.3526 80.6034L78.4894 80.2808L78.2304 79.3744C78.1875 79.2242 78.0864 79.0972 77.9495 79.0212C77.8125 78.9452 77.6509 78.9265 77.5002 78.9692Z" fill="#2F2E41"/>
<path d="M70.8205 75.0587C70.5155 74.6027 70.114 74.2189 69.6441 73.9342C69.1742 73.6496 68.6474 73.4712 68.1009 73.4114C67.5543 73.3516 67.0012 73.412 66.4806 73.5883C65.96 73.7646 65.4845 74.0525 65.0876 74.4318L57.2159 70.9924L53.952 75.2501L65.1368 79.9515C65.8203 80.5738 66.7091 80.9245 67.6347 80.9374C68.5604 80.9502 69.4586 80.6242 70.1592 80.0211C70.8598 79.418 71.3141 78.5797 71.4359 77.6651C71.5578 76.7505 71.3388 75.8231 70.8205 75.0587Z" fill="#FFB6B6"/>
<path d="M50.5424 77.4531C46.6463 76.9083 41.6954 73.8941 36.0586 68.6091C35.7438 68.3194 35.4927 67.9678 35.3214 67.5765C35.15 67.1851 35.062 66.7625 35.063 66.3355C35.012 63.3564 38.4196 59.8154 38.7525 59.4769L42.9073 51.6896C42.9606 51.561 44.4272 48.1454 47.0312 47.2215C47.5787 47.0319 48.161 46.9626 48.738 47.0185C49.315 47.0744 49.873 47.2541 50.3736 47.5453C54.7585 49.8689 49.3258 62.314 48.5912 63.9429L54.3091 67.6715L57.8491 70.6855L63.0953 71.9856L60.7105 78.4508L52.5987 77.5007C51.9139 77.5695 51.2233 77.5535 50.5424 77.4531Z" fill="#2F2E41"/>
<path d="M58.2252 18.5496C58.882 13.0872 55.0679 8.13997 49.7064 7.49976C44.3449 6.85955 39.4662 10.7687 38.8095 16.2312C38.1528 21.6936 41.9668 26.6408 47.3283 27.281C52.6898 27.9212 57.5685 24.012 58.2252 18.5496Z" fill="#FFB6B6"/>
<path d="M23.0557 9.99892C24.9364 8.27815 26.0269 5.82739 27.6078 3.80714C29.1888 1.78688 31.7188 0.111869 34.083 0.908252C35.7128 1.45726 36.828 3.08172 37.285 4.79893C37.7419 6.5161 37.6472 8.33834 37.5489 10.1228C37.946 6.4789 40.7758 3.23828 44.2293 2.47279C47.6826 1.70729 51.4927 3.47609 53.2235 6.64833C54.2332 5.91745 55.4767 5.58113 56.7186 5.70313C57.9604 5.82513 59.1142 6.39696 59.9612 7.31024C61.6243 9.19169 61.6568 12.3986 60.0327 14.3512C58.4085 16.3038 55.3472 16.7379 53.3115 15.3043L52.457 15.918C52.7087 17.4797 51.6542 19.163 50.1737 19.5627C48.9732 19.887 47.3658 19.6172 46.7933 20.7637C46.3933 21.5647 46.8456 22.5248 47.3637 23.2389C47.8816 23.953 48.5086 24.7014 48.4731 25.5998C48.4198 26.9553 46.9145 27.7296 45.615 27.8618C42.4813 28.1804 39.2647 26.3678 37.8285 23.4739C37.8009 23.4181 37.7703 23.3619 37.7367 23.3052C36.9011 21.9298 36.3557 20.3989 36.1338 18.8063C35.9119 17.2137 36.0181 15.5927 36.446 14.0424C36.6195 13.4339 36.5753 12.9606 36.1638 12.7624C34.3853 11.906 29.0284 12.6181 27.3109 13.6348C25.5932 14.6514 24.1422 16.095 22.4731 17.1963C20.804 18.2976 18.7546 19.0561 16.873 18.4773C15.3661 18.0137 14.1895 16.7425 13.4696 15.2928C12.7498 13.843 12.4309 12.2153 12.1637 10.6035C15.3345 12.9716 20.0955 12.7073 23.0557 9.99892Z" fill="#2F2E41"/>
<path d="M21.5772 74.8304L21.5818 74.8242L21.5772 74.8366V74.8304Z" fill="#2F2E41"/>
</g>
<defs>
<clipPath id="clip0_5_1807">
<rect width="143" height="151" fill="white"/>
</clipPath>
</defs>
</svg>
