<svg width="207" height="137" viewBox="0 0 207 137" fill="none" xmlns="http://www.w3.org/2000/svg">
<g clip-path="url(#clip0_5_2136)">
<path d="M14.6533 62.3278V24.0487C14.6533 23.5021 14.8707 22.9778 15.2578 22.5913C15.6448 22.2047 16.1698 21.9875 16.7172 21.9875C17.2645 21.9875 17.7895 22.2047 18.1765 22.5913C18.5636 22.9778 18.781 23.5021 18.781 24.0487V62.3278C18.781 62.8745 18.5636 63.3988 18.1765 63.7853C17.7895 64.1719 17.2645 64.389 16.7172 64.389C16.1698 64.389 15.6448 64.1719 15.2578 63.7853C14.8707 63.3988 14.6533 62.8745 14.6533 62.3278Z" fill="#F0F0F0"/>
<path d="M9.71472 62.3278V24.0487C9.71472 23.5021 9.93217 22.9778 10.3192 22.5913C10.7063 22.2047 11.2312 21.9875 11.7786 21.9875C12.326 21.9875 12.8509 22.2047 13.238 22.5913C13.625 22.9778 13.8425 23.5021 13.8425 24.0487V62.3278C13.8425 62.8745 13.625 63.3988 13.238 63.7853C12.8509 64.1719 12.326 64.389 11.7786 64.389C11.2312 64.389 10.7063 64.1719 10.3192 63.7853C9.93217 63.3988 9.71472 62.8745 9.71472 62.3278Z" fill="#F0F0F0"/>
<path d="M4.77615 62.3278V24.0487C4.77615 23.5021 4.9936 22.9778 5.38065 22.5913C5.7677 22.2047 6.29266 21.9875 6.84003 21.9875C7.3874 21.9875 7.91235 22.2047 8.29941 22.5913C8.68646 22.9778 8.9039 23.5021 8.9039 24.0487V62.3278C8.9039 62.8745 8.68646 63.3988 8.29941 63.7853C7.91235 64.1719 7.3874 64.389 6.84003 64.389C6.29266 64.389 5.7677 64.1719 5.38065 63.7853C4.9936 63.3988 4.77615 62.8745 4.77615 62.3278Z" fill="#F0F0F0"/>
<path d="M191.234 123.467C190.403 123.468 189.578 123.325 188.795 123.045L188.675 123.001L188.73 122.735C187.329 119.908 187.819 116.035 189.984 112.851C191.953 109.956 194.946 107.851 197.587 105.994C197.922 105.759 198.32 105.629 198.73 105.621C199.14 105.613 199.542 105.728 199.886 105.95C200.23 106.173 200.499 106.493 200.66 106.87C200.82 107.247 200.864 107.663 200.785 108.064L199.841 112.903C199.159 116.394 198.349 119.698 195.944 121.758C194.623 122.862 192.956 123.467 191.234 123.467Z" fill="#E6E6E6"/>
<path d="M197.419 131.829C196.504 131.824 195.605 131.59 194.804 131.15C194.002 130.709 193.324 130.076 192.83 129.307L192.761 129.2L192.925 129.057C193.347 126.754 195.334 124.703 198.002 123.821C200.428 123.019 203.105 123.151 205.465 123.266C205.777 123.281 206.078 123.388 206.328 123.574C206.579 123.76 206.769 124.016 206.874 124.31C206.979 124.604 206.994 124.922 206.918 125.224C206.842 125.527 206.677 125.8 206.445 126.009L203.789 128.403C201.859 130.142 199.934 131.713 197.613 131.825C197.548 131.828 197.483 131.829 197.419 131.829Z" fill="#E6E6E6"/>
<path d="M189.176 134.388C188.784 131.472 188.381 128.518 188.656 125.57C188.9 122.952 189.683 120.395 191.275 118.298C192.117 117.191 193.146 116.239 194.315 115.485C194.619 115.29 194.899 115.781 194.596 115.976C192.569 117.291 191.009 119.212 190.141 121.465C189.171 123.984 189.015 126.73 189.182 129.406C189.283 131.024 189.497 132.632 189.713 134.237C189.731 134.309 189.72 134.385 189.684 134.45C189.648 134.515 189.589 134.564 189.519 134.587C189.483 134.597 189.446 134.599 189.41 134.594C189.373 134.589 189.338 134.577 189.306 134.559C189.274 134.54 189.247 134.516 189.224 134.487C189.202 134.457 189.186 134.424 189.176 134.388Z" fill="#F2F2F2"/>
<path d="M188.068 136.065C189.956 132.655 192.145 128.865 196.058 127.653C197.144 127.318 198.286 127.198 199.418 127.299C199.775 127.331 199.686 127.892 199.33 127.861C197.427 127.701 195.529 128.214 193.967 129.309C192.455 130.36 191.277 131.821 190.281 133.37C189.67 134.319 189.124 135.309 188.577 136.297C188.402 136.612 187.891 136.384 188.068 136.065Z" fill="#F2F2F2"/>
<path d="M187.218 136.015L189.124 136.059L177.632 74.7422L175.726 75.1009L178.727 91.0072H169.058L172.059 75.1009L170.153 74.7422L158.756 136.059L160.566 136.015L166.558 104.258H181.227L187.218 136.015ZM167.002 101.902L168.613 93.3629H179.171L180.782 101.902H167.002Z" fill="#CACACA"/>
<path d="M103.99 63.3047V43.1682C103.99 42.5704 104.915 42.084 106.053 42.084C107.191 42.084 108.117 42.5704 108.117 43.1682V63.3047C108.117 63.9025 107.191 64.3889 106.053 64.3889C104.915 64.3889 103.99 63.9025 103.99 63.3047Z" fill="#F0F0F0"/>
<path d="M99.051 63.3047V43.1682C99.051 42.5704 99.9769 42.084 101.115 42.084C102.253 42.084 103.179 42.5704 103.179 43.1682V63.3047C103.179 63.9025 102.253 64.3889 101.115 64.3889C99.9769 64.3889 99.051 63.9025 99.051 63.3047Z" fill="#F0F0F0"/>
<path d="M94.1124 63.3047V43.1682C94.1124 42.5704 95.0383 42.084 96.1763 42.084C97.3143 42.084 98.2402 42.5704 98.2402 43.1682V63.3047C98.2402 63.9025 97.3143 64.3889 96.1763 64.3889C95.0383 64.3889 94.1124 63.9025 94.1124 63.3047Z" fill="#F0F0F0"/>
<path d="M135.659 48.4962C135.65 48.435 135.628 48.3764 135.595 48.3242C135.562 48.2721 135.518 48.2275 135.466 48.1934L119.906 37.9349C120.141 37.8372 120.337 37.6656 120.465 37.4463C120.62 37.1756 120.662 36.8544 120.581 36.553C120.5 36.2515 120.303 35.9943 120.033 35.8374L118.757 35.1013C118.485 34.946 118.164 34.9042 117.862 34.985C117.56 35.0658 117.303 35.2626 117.146 35.5324C117.061 35.6807 117.01 35.8459 116.996 36.0161L105.765 28.6111C105.387 27.6987 104.816 26.8795 104.089 26.2105C103.362 25.5414 102.498 25.0387 101.557 24.7372V21.4722H97.4294V24.7372C96.0599 25.1745 94.865 26.0352 94.0171 27.1948C93.1692 28.3545 92.7121 29.7532 92.712 31.1892V32.0725H96.8397C96.8397 32.7754 97.1193 33.4495 97.6169 33.9464C98.1146 34.4434 98.7895 34.7226 99.4933 34.7226C100.197 34.7226 100.872 34.4434 101.37 33.9464C101.867 33.4495 102.147 32.7754 102.147 32.0725H106.275V31.1892C106.274 30.7657 106.234 30.3432 106.155 29.9272L134.569 48.6603L122.766 62.9915C122.674 62.9911 122.583 62.9903 122.491 62.9903C121.549 62.9903 120.637 63.0125 119.767 63.0508C119.82 62.9053 119.843 62.7507 119.835 62.5962C119.817 62.2846 119.677 61.9924 119.445 61.7835C119.213 61.5746 118.908 61.466 118.595 61.4813L117.123 61.5579C116.811 61.5751 116.519 61.7148 116.31 61.9467C116.1 62.1786 115.992 62.4837 116.007 62.7954C116.018 62.9796 116.073 63.1585 116.167 63.3172C113.564 63.5935 111.877 63.9743 111.877 64.1681C111.877 64.4856 116.406 64.1833 122.076 64.1688C122.102 64.2424 122.147 64.3078 122.206 64.3583C122.266 64.4087 122.338 64.4424 122.415 64.4559C122.492 64.4694 122.571 64.4622 122.645 64.4351C122.718 64.4079 122.783 64.3618 122.832 64.3014L122.941 64.1689C128.594 64.1846 133.105 64.4849 133.105 64.1681C133.105 63.8693 129.095 63.1262 123.898 63.007L135.564 48.8425C135.603 48.7947 135.632 48.7391 135.649 48.6795C135.665 48.6198 135.669 48.5574 135.659 48.4962Z" fill="#CCCCCC"/>
<path d="M136.085 136.162H99.7562C99.022 136.162 98.3182 135.87 97.7991 135.351C97.2799 134.833 96.988 134.13 96.9872 133.397V73.8533C96.9864 73.1982 96.7254 72.5701 96.2616 72.1069C95.7977 71.6436 95.1688 71.3831 94.5128 71.3824H9.53549C8.87951 71.3831 8.2506 71.6436 7.78674 72.1069C7.32287 72.5701 7.06194 73.1982 7.06117 73.8533V133.397C7.06034 134.13 6.76832 134.833 6.24919 135.351C5.73006 135.87 5.02621 136.162 4.29202 136.162H3.04903C2.31485 136.162 1.61099 135.87 1.09185 135.351C0.572722 134.833 0.280712 134.13 0.279877 133.397V70.6462C0.281846 68.8897 0.981403 67.2057 2.22507 65.9637C3.46874 64.7216 5.15495 64.023 6.91376 64.021H132.22C133.979 64.023 135.665 64.7216 136.909 65.9637C138.153 67.2057 138.852 68.8897 138.854 70.6462V133.397C138.853 134.13 138.561 134.833 138.042 135.351C137.523 135.87 136.819 136.162 136.085 136.162Z" fill="#E4E4E4"/>
<path d="M138.707 79.4797H97.1346V81.2465H138.707V79.4797Z" fill="white"/>
<path d="M138.707 103.331H97.1346V105.097H138.707V103.331Z" fill="white"/>
<path d="M62.722 63.7301L61.5272 63.2277L60.7075 57.2458H49.7925L48.9041 63.2033L47.8351 63.737C47.784 63.7626 47.743 63.8046 47.7188 63.8563C47.6945 63.9081 47.6885 63.9664 47.7016 64.022C47.7148 64.0776 47.7463 64.1271 47.7912 64.1626C47.836 64.198 47.8915 64.2173 47.9487 64.2173H62.6235C62.6821 64.2173 62.7389 64.197 62.7843 64.16C62.8296 64.1229 62.8607 64.0713 62.8723 64.0139C62.8839 63.9566 62.8753 63.897 62.8479 63.8452C62.8205 63.7935 62.776 63.7528 62.722 63.7301Z" fill="#E6E6E6"/>
<path d="M82.1187 58.0417H28.5011C28.2198 58.0411 27.9502 57.9291 27.7515 57.7302C27.5528 57.5313 27.4413 57.2618 27.4413 56.9809V49.4299H83.1786V56.9809C83.1786 57.2618 83.067 57.5313 82.8683 57.7302C82.6696 57.929 82.4001 58.0411 82.1187 58.0417Z" fill="#CCCCCC"/>
<path d="M83.2347 52.9988H27.3923V20.69C27.3927 20.3509 27.5277 20.0259 27.7678 19.7861C28.0079 19.5464 28.3334 19.4115 28.6729 19.4111H81.9541C82.2936 19.4115 82.6191 19.5464 82.8591 19.7861C83.0992 20.0259 83.2343 20.3509 83.2347 20.69V52.9988Z" fill="#3F3D56"/>
<path d="M79.8994 50.6539H30.7276C30.4658 50.6536 30.2149 50.5496 30.0298 50.3648C29.8447 50.18 29.7406 49.9294 29.7403 49.668V22.7421C29.7406 22.4807 29.8447 22.2301 30.0298 22.0452C30.2149 21.8604 30.4658 21.7564 30.7276 21.7561H79.8994C80.1612 21.7564 80.4121 21.8604 80.5972 22.0452C80.7823 22.2301 80.8864 22.4807 80.8867 22.7421V49.668C80.8864 49.9294 80.7823 50.18 80.5972 50.3648C80.4121 50.5496 80.1612 50.6536 79.8994 50.6539Z" fill="white"/>
<path d="M135.022 24.8471C135.492 24.7795 135.972 24.8156 136.427 24.953C136.882 25.0904 137.301 25.3258 137.655 25.6425C138.009 25.9592 138.289 26.3495 138.475 26.786C138.662 27.2226 138.75 27.6946 138.734 28.169L149.515 32.3133L144.631 35.7985L135.142 31.3286C134.346 31.2492 133.607 30.8808 133.064 30.2933C132.522 29.7058 132.214 28.9401 132.199 28.1412C132.184 27.3422 132.464 26.5656 132.984 25.9585C133.504 25.3514 134.229 24.956 135.022 24.8471Z" fill="#9E616A"/>
<path d="M175.957 22.8127L177.781 26.1244C177.34 28.2249 176.201 30.1147 174.548 31.4867C171.756 33.8386 157.155 42.5984 157.155 42.5984L138.723 33.3568L141.947 29.0775L156.419 33.921C161.787 28.8584 168.265 25.1182 175.337 22.9986L175.957 22.8127Z" fill="#E4E4E4"/>
<path d="M172.565 77.612C180.51 77.612 186.951 75.5162 186.951 72.9308C186.951 70.3454 180.51 68.2495 172.565 68.2495C164.62 68.2495 158.18 70.3454 158.18 72.9308C158.18 75.5162 164.62 77.612 172.565 77.612Z" fill="#CACACA"/>
<path d="M140.293 132.048L136.473 130.994L138.728 115.777L144.366 117.334L140.293 132.048Z" fill="#9E616A"/>
<path d="M140.244 136.015L127.927 132.615L127.97 132.459C128.321 131.189 129.163 130.111 130.311 129.461C131.458 128.812 132.817 128.644 134.089 128.995L134.089 128.995L141.612 131.072L140.244 136.015Z" fill="#2F2E41"/>
<path d="M129.218 132.098L125.592 130.499L130.042 115.772L135.392 118.132L129.218 132.098Z" fill="#9E616A"/>
<path d="M128.59 136.015L116.9 130.86L116.966 130.712C117.499 129.507 118.489 128.563 119.719 128.087C120.949 127.611 122.318 127.642 123.525 128.174L123.525 128.174L130.665 131.323L128.59 136.015Z" fill="#2F2E41"/>
<path d="M183.761 61.4855C183.761 61.4855 185.682 67.4314 173.892 74.9509L158.708 90.062L142.93 127.754L133.563 123.56L135.4 118.663L136.633 115.376L137.264 113.695L137.94 111.893L147.968 85.1603L156.391 70.4307L156.636 62.4382L158.708 56.8042L173.74 51.4773L183.761 61.4855Z" fill="#2F2E41"/>
<path d="M176.095 61.7799C176.095 61.7799 178.017 67.7259 166.226 75.2454L151.042 90.3564L135.264 128.048L125.897 123.854L127.734 118.957L128.967 115.671L129.598 113.99L130.274 112.187L140.302 85.4548L143.122 80.5229C146.843 74.0167 151.364 68.0008 156.581 62.6156L159.346 59.7612L159.64 55.3444L166.074 51.7717L176.095 61.7799Z" fill="#2F2E41"/>
<path d="M167.012 32.6715L171.729 22.6601L179.961 21.5386C179.961 21.5386 186.39 29.7176 184.702 41.2107C184.069 45.5206 183.553 49.8115 183.523 53.5778C183.514 54.58 184.392 55.0275 184.407 55.9335C184.422 56.8235 182.743 58.2732 183.228 58.878C183.92 59.7116 184.333 60.7418 184.407 61.8226C183.823 63.2113 166.14 55.6879 158.708 56.8044L167.012 32.6715Z" fill="#E4E4E4"/>
<path d="M178.704 16.4984C180.806 12.9681 179.643 8.40497 176.108 6.30639C172.574 4.20782 168.004 5.36848 165.903 8.8988C163.802 12.4291 164.964 16.9922 168.499 19.0908C172.034 21.1894 176.603 20.0287 178.704 16.4984Z" fill="#9E616A"/>
<path d="M177.064 10.0285C177.05 10.2242 177.03 10.4833 177.008 10.7765C176.984 11.5791 177.211 12.3691 177.656 13.0379C178.072 13.7414 177.575 17.9908 177.575 17.9908C189.772 9.49985 180.135 0.969315 176.365 1.72762C176.444 0.647818 173.369 1.07558 173.369 1.07558C172.198 -0.746447 169.63 1.67215 169.63 1.67215L170.125 0.839746C168.132 1.34613 166.162 7.49894 166.162 7.49894C166.838 10.1533 177.143 8.94868 177.064 10.0285Z" fill="#2F2E41"/>
<path d="M129.748 36.6099C133.94 31.0421 137.253 24.8664 139.573 18.2974C139.708 17.9045 139.698 17.4767 139.546 17.0901C139.395 16.7036 139.11 16.3834 138.744 16.1865L124.402 8.51151C124.17 8.3864 123.912 8.31582 123.649 8.30514C123.385 8.29445 123.123 8.34395 122.881 8.44987C122.635 8.55659 122.417 8.71793 122.243 8.92162C122.069 9.1253 121.944 9.36596 121.877 9.62528C120.207 15.9553 117.07 21.8041 112.717 26.6983C112.538 26.8975 112.406 27.1349 112.333 27.3925C112.26 27.65 112.246 27.9209 112.293 28.1845C112.339 28.4439 112.443 28.6895 112.598 28.9027C112.752 29.1159 112.954 29.2909 113.187 29.4145L127.529 37.0896C127.896 37.285 128.321 37.344 128.727 37.2561C129.133 37.1683 129.495 36.9393 129.748 36.6099Z" fill="#CCCCCC"/>
<path d="M128.77 35.8752C128.692 35.9713 128.584 36.0376 128.463 36.0625C128.342 36.0875 128.217 36.0695 128.108 36.0117L113.765 28.3365C113.695 28.3003 113.635 28.2484 113.589 28.185C113.543 28.1215 113.512 28.0483 113.499 27.9709C113.484 27.8893 113.488 27.8053 113.511 27.7255C113.534 27.6458 113.575 27.5724 113.631 27.5112C118.112 22.4728 121.343 16.4518 123.061 9.93517C123.081 9.85465 123.119 9.77983 123.173 9.71654C123.227 9.65326 123.294 9.60324 123.37 9.5704C123.442 9.53832 123.521 9.52331 123.599 9.52656C123.678 9.5298 123.755 9.55122 123.824 9.58911L138.166 17.2641C138.275 17.3227 138.359 17.4174 138.405 17.5318C138.452 17.6462 138.456 17.7731 138.419 17.8906C136.14 24.342 132.886 30.407 128.77 35.8752Z" fill="white"/>
<path d="M123.752 16.8811L133.644 22.6718C134.628 23.248 135.52 21.7216 134.537 21.1463L124.645 15.3555C123.66 14.7794 122.769 16.3058 123.752 16.8811Z" fill="#8075FF"/>
<path d="M121.983 20.1201L131.875 25.9109C132.859 26.487 133.751 24.9606 132.768 24.3853L122.876 18.5945C121.891 18.0184 121 19.5448 121.983 20.1201Z" fill="#8075FF"/>
<path d="M119.919 23.6535L129.811 29.4443C130.796 30.0205 131.687 28.494 130.704 27.9188L120.812 22.128C119.827 21.5518 118.936 23.0783 119.919 23.6535Z" fill="#8075FF"/>
<path d="M117.855 26.5981L127.747 32.3889C128.732 32.965 129.623 31.4386 128.64 30.8634L118.748 25.0726C117.764 24.4964 116.872 26.0229 117.855 26.5981Z" fill="#8075FF"/>
<path d="M162.952 60.6602L166.666 69.0007C166.756 69.2004 166.794 69.4192 166.777 69.6374C166.761 69.8556 166.69 70.0662 166.572 70.2502C166.432 70.4702 166.231 70.6441 165.993 70.7499C165.755 70.8557 165.49 70.8887 165.233 70.8448C165.146 70.8314 165.06 70.8086 164.977 70.7766C164.649 70.65 164.384 70.3986 164.241 70.0776L160.527 61.737C160.457 61.578 160.418 61.4066 160.413 61.2327C160.409 61.0587 160.439 60.8856 160.501 60.7232C160.628 60.3952 160.879 60.1306 161.201 59.9879C161.522 59.8451 161.887 59.8357 162.216 59.9618C162.544 60.0878 162.809 60.3391 162.952 60.6602Z" fill="#8075FF"/>
<path d="M166.366 68.3281L167.11 70.0115L167.491 72.398C167.516 72.5551 167.489 72.7161 167.413 72.856C167.337 72.9958 167.217 73.1067 167.071 73.1714C166.925 73.236 166.763 73.2508 166.608 73.2134C166.453 73.1761 166.315 73.0886 166.215 72.9647L164.675 71.0516L163.942 69.4049L166.366 68.3281Z" fill="#3F3D56"/>
<path d="M159.702 58.3397L160.234 61.6789C160.252 61.7882 160.294 61.8921 160.358 61.9824C160.422 62.0728 160.506 62.1473 160.603 62.2001C160.701 62.2529 160.809 62.2826 160.92 62.287C161.031 62.2914 161.141 62.2702 161.242 62.2252L161.77 61.9909L162.788 64.2778C162.82 64.3491 162.879 64.4048 162.952 64.4327C163.025 64.4606 163.106 64.4585 163.177 64.4268C163.249 64.3951 163.304 64.3364 163.332 64.2636C163.361 64.1908 163.359 64.1099 163.327 64.0385L162.309 61.7516L162.836 61.5173C163.011 61.4395 163.148 61.2957 163.217 61.1173C163.286 60.9389 163.281 60.7405 163.204 60.5655C163.178 60.5075 163.145 60.4532 163.105 60.4039L160.979 57.7727C160.879 57.6489 160.741 57.5616 160.586 57.5243C160.431 57.487 160.268 57.5018 160.122 57.5665C159.977 57.6311 159.857 57.742 159.781 57.8818C159.705 58.0216 159.677 58.1826 159.702 58.3397Z" fill="#3F3D56"/>
<path d="M161.243 64.3668C161.327 63.8996 161.512 63.4564 161.785 63.0684C162.059 62.6805 162.415 62.3572 162.827 62.1213C163.24 61.8855 163.699 61.7428 164.172 61.7033C164.646 61.6638 165.122 61.7285 165.568 61.8929L172.9 52.9773L174.675 58.7043L167.441 66.2926C167.115 67.0223 166.532 67.6072 165.803 67.9365C165.074 68.2657 164.249 68.3165 163.485 68.0791C162.721 67.8417 162.071 67.3327 161.658 66.6485C161.244 65.9643 161.097 65.1524 161.243 64.3668Z" fill="#9E616A"/>
<path d="M170.473 63.7874L167.244 59.1294L176.413 46.9197L171.689 36.8111L172.033 24.787L175.937 24.0669L175.985 24.0912C177.883 25.1821 179.349 26.8885 180.142 28.9269C181.116 31.358 183.289 40.4844 184.499 45.7079C184.736 46.7202 184.71 47.7763 184.423 48.7757C184.136 49.7751 183.598 50.6845 182.859 51.4172L170.473 63.7874Z" fill="#E4E4E4"/>
<path d="M79.5551 41.2797C79.5283 41.5059 79.5193 41.7339 79.5284 41.9615L62.9959 53.9735L58.454 51.9661L54.5246 58.4156L62.2193 62.7497C62.8409 63.0999 63.5595 63.2392 64.2671 63.1468C64.9748 63.0543 65.6333 62.7351 66.1438 62.2371L82.7832 46.0058C83.6349 46.2219 84.5323 46.174 85.3561 45.8683C86.1798 45.5626 86.8909 45.0138 87.3947 44.2947C87.8984 43.5756 88.1711 42.7203 88.1763 41.8427C88.1815 40.9651 87.919 40.1067 87.4238 39.3817C86.9286 38.6567 86.2241 38.0995 85.4041 37.7841C84.584 37.4687 83.6872 37.4101 82.833 37.6161C81.9788 37.8222 81.2076 38.2831 80.6221 38.9375C80.0366 39.5919 79.6644 40.4088 79.5551 41.2797Z" fill="#FFB6B6"/>
<path d="M62.4612 54.4127L57.64 62.436C57.5029 62.6643 57.318 62.8604 57.0981 63.0109C56.8782 63.1614 56.6285 63.2628 56.3658 63.3082C56.1031 63.3536 55.8337 63.3419 55.5759 63.274C55.3182 63.206 55.0781 63.0834 54.8721 62.9145L47.6535 56.9937C46.4883 56.2861 45.6515 55.1458 45.3267 53.823C45.0018 52.5002 45.2154 51.1027 45.9206 49.9369C46.6258 48.7711 47.765 47.9321 49.0886 47.6039C50.4122 47.2756 51.8121 47.4848 52.9815 48.1856L61.5818 51.7483C61.8281 51.8504 62.0493 52.0042 62.2306 52.1994C62.4119 52.3946 62.549 52.6265 62.6324 52.8794C62.7159 53.1323 62.7438 53.4001 62.7142 53.6647C62.6847 53.9293 62.5984 54.1844 62.4612 54.4127Z" fill="#8075FF"/>
<path d="M41.8039 124.15H51.2543V108.51H41.8039V124.15Z" fill="#CACACA"/>
<path d="M50.7807 116.786L49.5677 118.571L72.2486 133.941L73.4615 132.156L50.7807 116.786Z" fill="#CACACA"/>
<path d="M42.2775 116.786L19.5967 132.156L20.8097 133.941L43.4905 118.571L42.2775 116.786Z" fill="#CACACA"/>
<path d="M72.8551 136.015C74.4954 136.015 75.8251 134.687 75.8251 133.049C75.8251 131.411 74.4954 130.083 72.8551 130.083C71.2147 130.083 69.8849 131.411 69.8849 133.049C69.8849 134.687 71.2147 136.015 72.8551 136.015Z" fill="#CACACA"/>
<path d="M46.3941 136.015C48.0345 136.015 49.3642 134.687 49.3642 133.049C49.3642 131.411 48.0345 130.083 46.3941 130.083C44.7538 130.083 43.424 131.411 43.424 133.049C43.424 134.687 44.7538 136.015 46.3941 136.015Z" fill="#CACACA"/>
<path d="M20.2032 136.015C21.8436 136.015 23.1733 134.687 23.1733 133.049C23.1733 131.411 21.8436 130.083 20.2032 130.083C18.5629 130.083 17.2331 131.411 17.2331 133.049C17.2331 134.687 18.5629 136.015 20.2032 136.015Z" fill="#CACACA"/>
<path d="M47.4742 117.678H45.3141V133.049H47.4742V117.678Z" fill="#CACACA"/>
<path d="M44.5041 115.521H48.5542V94.7576H44.5041V115.521Z" fill="#CACACA"/>
<path d="M34.9187 97.9936V93.1398C34.9197 92.2461 35.2757 91.3893 35.9084 90.7574C36.5411 90.1255 37.399 89.77 38.2938 89.769H56.3845C57.2793 89.7701 58.1372 90.1255 58.7699 90.7574C59.4026 91.3893 59.7586 92.2461 59.7596 93.1398V97.9936C59.7586 98.8873 59.4026 99.744 58.7699 100.376C58.1372 101.008 57.2793 101.363 56.3845 101.364H38.2938C37.399 101.363 36.5411 101.008 35.9084 100.376C35.2757 99.744 34.9197 98.8872 34.9187 97.9936Z" fill="#3F3D56"/>
<path d="M67.5926 131.172L72.5955 131.171L74.976 118.212L67.592 118.212L67.5926 131.172Z" fill="#FFB8B8"/>
<path d="M66.3167 136.015L82.4489 136.015V135.811C82.4489 134.987 82.2865 134.172 81.9709 133.411C81.6554 132.65 81.1929 131.959 80.6099 131.377C80.0268 130.794 79.3346 130.333 78.5728 130.017C77.811 129.702 76.9946 129.54 76.17 129.54H76.1693L66.3164 129.54L66.3167 136.015Z" fill="#2F2E41"/>
<path d="M75.0757 123.135L85.0499 100.798C85.8827 98.9153 85.9747 96.7884 85.3078 94.841C84.6409 92.8935 83.2639 91.2685 81.4511 90.2894L59.8167 78.7034L49.9444 77.8647L40.8379 77.0381L40.7723 77.1491C40.6883 77.2908 38.7303 80.6683 40.0538 84.3718C41.0578 87.1809 43.6691 89.3752 47.8153 90.8936C57.493 94.4375 68.6726 97.4663 73.0299 98.6038C73.2225 98.653 73.4024 98.7424 73.558 98.866C73.7135 98.9896 73.8411 99.1447 73.9323 99.321C74.0237 99.4954 74.0781 99.6867 74.0918 99.883C74.1056 100.079 74.0786 100.276 74.0124 100.462L64.746 121.253C64.6492 121.517 64.6144 121.799 64.6441 122.079C64.6739 122.358 64.7675 122.627 64.9177 122.864C65.0679 123.101 65.2707 123.301 65.5105 123.448C65.7502 123.595 66.0205 123.685 66.3005 123.711L73.2245 124.214C73.2833 124.22 73.3418 124.222 73.4 124.222C73.7546 124.222 74.1016 124.12 74.399 123.927C74.6964 123.734 74.9314 123.459 75.0757 123.135Z" fill="#2F2E41"/>
<path d="M64.3279 131.172L69.3308 131.171L71.7113 118.212L64.3273 118.212L64.3279 131.172Z" fill="#FFB8B8"/>
<path d="M63.052 136.015L79.1841 136.015V135.811C79.1841 134.987 79.0217 134.172 78.7062 133.411C78.3906 132.65 77.9281 131.959 77.3451 131.377C76.762 130.794 76.0699 130.333 75.3081 130.017C74.5463 129.702 73.7298 129.54 72.9052 129.54H72.9046L63.0516 129.54L63.052 136.015Z" fill="#2F2E41"/>
<path d="M71.4029 124.358L81.3771 102.021C82.2098 100.138 82.3019 98.0111 81.635 96.0637C80.968 94.1162 79.591 92.4911 77.7783 91.5121L56.1438 79.9261L46.2716 79.0874L39.1389 78.4695L39.1399 78.3718C39.0559 78.5135 37.0979 81.891 38.4215 85.5945C39.4254 88.4036 39.9962 90.5979 44.1424 92.1163C53.8201 95.6601 64.9997 98.689 69.3571 99.8265C69.5496 99.8757 69.7296 99.965 69.8851 100.089C70.0406 100.212 70.1682 100.367 70.2594 100.544C70.3509 100.718 70.4052 100.909 70.419 101.106C70.4328 101.302 70.4057 101.499 70.3395 101.684L61.0731 122.476C60.9764 122.74 60.9415 123.022 60.9713 123.301C61.0011 123.581 61.0947 123.849 61.2449 124.087C61.3951 124.324 61.5979 124.524 61.8376 124.671C62.0774 124.818 62.3477 124.907 62.6277 124.933L69.5516 125.437C69.6104 125.442 69.6689 125.445 69.7272 125.445C70.0818 125.445 70.4288 125.342 70.7262 125.149C71.0235 124.956 71.2586 124.682 71.4029 124.358Z" fill="#2F2E41"/>
<path d="M65.1463 28.1449C66.427 22.7664 63.0995 17.3695 57.714 16.0904C52.3286 14.8113 46.9245 18.1345 45.6438 23.513C44.363 28.8914 47.6906 34.2884 53.076 35.5674C58.4615 36.8465 63.8655 33.5233 65.1463 28.1449Z" fill="#FFB8B8"/>
<path d="M89.945 64.2886C94.1363 58.7208 97.4496 52.5451 99.77 45.9762C99.9044 45.5832 99.8949 45.1554 99.743 44.7688C99.5912 44.3823 99.3069 44.0621 98.9408 43.8652L84.5983 36.1902C84.3663 36.0651 84.1087 35.9945 83.8452 35.9838C83.5818 35.9732 83.3193 36.0227 83.0779 36.1286C82.832 36.2353 82.6137 36.3966 82.4396 36.6003C82.2656 36.804 82.1403 37.0447 82.0735 37.304C80.4041 43.6341 77.2662 49.4828 72.9136 54.377C72.7344 54.5762 72.6031 54.8136 72.5296 55.0712C72.4562 55.3287 72.4426 55.5996 72.4899 55.8632C72.5353 56.1226 72.6393 56.3682 72.7942 56.5814C72.949 56.7946 73.1505 56.9696 73.3833 57.0933L87.7259 64.7683C88.0928 64.9637 88.5172 65.0227 88.9235 64.9349C89.3299 64.847 89.6919 64.618 89.945 64.2886Z" fill="#CCCCCC"/>
<path d="M88.9663 63.5541C88.8891 63.6503 88.7808 63.7166 88.6599 63.7415C88.5391 63.7664 88.4133 63.7484 88.3043 63.6907L73.9617 56.0155C73.892 55.9792 73.8317 55.9273 73.7855 55.8639C73.7393 55.8005 73.7085 55.7272 73.6954 55.6499C73.6804 55.5682 73.6846 55.4842 73.7076 55.4045C73.7306 55.3247 73.7718 55.2514 73.828 55.1902C78.3089 50.1518 81.5393 44.1307 83.2578 37.6141C83.2777 37.5336 83.316 37.4588 83.3696 37.3955C83.4233 37.3322 83.4909 37.2822 83.5672 37.2494C83.639 37.2173 83.7173 37.2023 83.7959 37.2055C83.8745 37.2088 83.9513 37.2302 84.0203 37.2681L98.3626 44.943C98.4712 45.0017 98.556 45.0964 98.6021 45.2107C98.6483 45.3251 98.653 45.452 98.6155 45.5695C96.3366 52.0209 93.0826 58.086 88.9663 63.5541Z" fill="white"/>
<path d="M83.9485 44.56L93.841 50.3508C94.8252 50.927 95.7165 49.4005 94.7338 48.8253L84.8413 43.0345C83.8571 42.4583 82.9658 43.9848 83.9485 44.56Z" fill="#CCCCCC"/>
<path d="M82.1794 47.799L92.0719 53.5898C93.0562 54.166 93.9475 52.6395 92.9648 52.0643L83.0723 46.2735C82.088 45.6973 81.1967 47.2238 82.1794 47.799Z" fill="#CCCCCC"/>
<path d="M80.7895 51.0253L89.7862 56.3592C90.6814 56.8899 91.6387 55.7927 90.745 55.2629L81.7483 49.9289C80.8531 49.3982 79.8958 50.4954 80.7895 51.0253Z" fill="#CCCCCC"/>
<path d="M78.0517 54.2768L87.9442 60.0676C88.9284 60.6437 89.8197 59.1173 88.837 58.5421L78.9445 52.7513C77.9603 52.1751 77.069 53.7016 78.0517 54.2768Z" fill="#CCCCCC"/>
<path d="M61.1743 79.5142L41.3393 79.3958L41.3339 79.2549C40.9557 69.3159 42.172 60.3126 45.0523 51.7308C45.093 51.4096 45.137 51.0663 45.1802 50.7293C45.6722 46.8899 46.0628 43.8415 49.7186 42.7063C49.414 42.3018 49.2345 41.8172 49.2021 41.3122C49.179 40.9766 49.2231 40.6397 49.3316 40.3212C49.4402 40.0028 49.6111 39.7091 49.8345 39.4572C50.0482 39.214 50.3082 39.0156 50.5994 38.8737C50.8906 38.7319 51.2071 38.6493 51.5306 38.6308L58.5906 38.3907C58.9616 38.3881 59.3227 38.5104 59.6157 38.7377C60.1532 39.1365 60.5309 39.7134 60.6813 40.365C60.8317 41.0166 60.7449 41.7004 60.4364 42.2939C60.3532 42.4593 60.3214 42.5346 60.3093 42.5674C60.5603 43.8806 61.305 45.4406 62.093 47.0915C63.2214 49.4551 64.5003 52.134 64.8291 55C65.0067 56.5475 64.9329 58.1134 64.6106 59.6374C64.4634 60.4586 64.4295 61.2961 64.5099 62.1265C64.5744 63.3578 64.6352 64.5203 63.9383 65.6447C63.7607 65.9495 63.5574 66.2744 63.3189 66.6344L62.3386 68.9748L61.1743 79.5142Z" fill="#8075FF"/>
<path d="M31.4086 93.4232V52.947C31.4101 51.6281 31.9354 50.3635 32.8692 49.4309C33.8031 48.4983 35.0693 47.9737 36.3899 47.9722H37.7677C39.0883 47.9737 40.3545 48.4983 41.2884 49.4309C42.2222 50.3635 42.7475 51.6281 42.749 52.947V93.4232C42.7475 94.7422 42.2222 96.0067 41.2884 96.9393C40.3545 97.8719 39.0883 98.3965 37.7677 98.398H36.3899C35.0693 98.3965 33.8031 97.8719 32.8692 96.9393C31.9354 96.0067 31.4101 94.7422 31.4086 93.4232Z" fill="#3F3D56"/>
<path d="M84.5988 56.9868C84.4564 57.1648 84.3283 57.3537 84.2157 57.5518L63.8252 59.0387L61.0287 54.9395L54.2824 58.3459L58.527 66.0833C58.8699 66.7084 59.4066 67.2056 60.0565 67.5001C60.7064 67.7946 61.4344 67.8707 62.1313 67.7168L84.8426 62.7026C85.4518 63.3352 86.2393 63.7675 87.1005 63.9422C87.9617 64.1168 88.8557 64.0255 89.6637 63.6803C90.4716 63.3351 91.1552 62.7524 91.6235 62.0098C92.0917 61.2671 92.3225 60.3997 92.2851 59.5229C92.2477 58.6461 91.9439 57.8014 91.4141 57.1012C90.8843 56.401 90.1536 55.8785 89.3192 55.6032C88.4848 55.3279 87.5862 55.3128 86.743 55.56C85.8998 55.8071 85.1519 56.3048 84.5988 56.9868Z" fill="#FFB6B6"/>
<path d="M63.139 59.13L54.8036 63.4029C54.5664 63.5245 54.3058 63.5936 54.0395 63.6055C53.7732 63.6174 53.5074 63.5719 53.2603 63.4719C53.0132 63.372 52.7906 63.2201 52.6075 63.0265C52.4245 62.8329 52.2855 62.6022 52.1998 62.3501L49.1981 53.5161C48.5826 52.3033 48.4731 50.8965 48.8935 49.6033C49.3138 48.3101 50.2299 47.2358 51.4412 46.6154C47.7463 48.5095 55.4418 43.1292 58.3788 48.8437L63.8004 56.4034C63.9556 56.6199 64.0622 56.8672 64.113 57.1286C64.1638 57.39 64.1576 57.6592 64.0949 57.9179C64.0321 58.1767 63.9142 58.4189 63.7493 58.628C63.5844 58.8372 63.3762 59.0084 63.139 59.13Z" fill="#8075FF"/>
<path d="M50.8671 35.5651C50.2639 35.5651 49.5982 35.2746 48.8477 34.6863C46.6392 32.9545 45.0607 30.5469 44.3542 27.8329C43.6477 25.1189 43.8523 22.2483 44.9365 19.6616C45.4822 18.3599 46.5028 16.5906 48.266 15.5536C49.5334 14.8086 51.0223 14.5394 52.3184 14.3456C53.4405 14.1777 54.5767 14.044 55.6953 13.9488C57.0319 13.8346 58.5759 13.7576 59.984 14.2918C61.0158 14.6835 61.894 15.3751 62.7432 16.0439C63.0392 16.2768 63.3453 16.5181 63.6519 16.7412C64.3947 17.3199 65.2515 17.7355 66.1662 17.9607C66.3592 18.0007 66.5414 18.0816 66.7004 18.1979C66.8594 18.3142 66.9916 18.4633 67.088 18.635C67.1863 18.8096 67.246 19.0032 67.2629 19.2028C67.2799 19.4023 67.2538 19.6032 67.1864 19.7919C67.0539 20.1628 66.9344 20.4972 67.1762 20.8596C67.2659 20.9872 67.3855 21.0909 67.5246 21.1617C67.6636 21.2325 67.818 21.2682 67.9741 21.2656C68.0564 21.2642 68.1379 21.2835 68.2109 21.3215C68.2839 21.3596 68.3463 21.4153 68.3923 21.4835C68.439 21.5512 68.4684 21.6292 68.4779 21.7108C68.4874 21.7924 68.4768 21.8751 68.447 21.9517L68.4082 22.0515C68.512 22.0611 68.6118 22.0958 68.6992 22.1526C68.7865 22.2093 68.8587 22.2864 68.9096 22.3773C68.9853 22.5066 69.0146 22.6578 68.9925 22.806C68.9705 22.9542 68.8985 23.0904 68.7885 23.1922C67.8941 24.0425 66.7789 24.6254 65.5695 24.8747C64.7419 25.0368 63.8905 25.0348 63.0637 24.8689L62.9306 24.843L62.947 24.6958C59.6023 23.5045 56.5832 25.5263 54.862 27.8376L54.6134 27.6809C54.6561 27.5948 54.6809 27.5009 54.6864 27.4049C54.6918 27.3089 54.6777 27.2129 54.645 27.1225C54.6103 27.014 54.5546 26.9134 54.481 26.8265C54.4073 26.7395 54.3173 26.6679 54.2159 26.6158C54.0109 26.5313 53.7855 26.5094 53.568 26.5528C53.3506 26.5961 53.1508 26.7028 52.994 26.8594C52.8343 27.0265 52.7112 27.2251 52.6325 27.4424C52.5539 27.6596 52.5214 27.8909 52.5371 28.1214C52.5823 28.61 52.707 29.0879 52.9061 29.5365C52.987 29.751 53.0707 29.973 53.1388 30.1967C53.5197 31.4676 53.4181 32.8342 52.8535 34.035C52.593 34.5828 52.1219 35.2812 51.357 35.4977C51.1976 35.5427 51.0327 35.5654 50.8671 35.5651Z" fill="#2F2E41"/>
</g>
<defs>
<clipPath id="clip0_5_2136">
<rect width="207" height="137" fill="white"/>
</clipPath>
</defs>
</svg>
