<svg width="36" height="18" viewBox="0 0 36 18" fill="none" xmlns="http://www.w3.org/2000/svg">
<path d="M12.631 5.28519C13.8421 8.96786 14.301 15.5374 17.8429 15.5374C18.1125 15.5374 18.385 15.5112 18.6585 15.4594C15.4388 14.713 15.0571 8.21493 13.0925 4.84985C12.9358 4.99197 12.782 5.1371 12.631 5.28519Z" fill="url(#paint0_linear_7_2544)"/>
<path d="M13.0923 4.84995C15.057 8.21503 15.4385 14.7131 18.6583 15.4595C18.9112 15.4134 19.1647 15.3435 19.4187 15.2553C16.5287 13.8476 15.73 7.53739 13.4987 4.49963C13.361 4.61383 13.2255 4.73067 13.0923 4.85008" fill="url(#paint1_linear_7_2544)"/>
<path d="M15.923 2.84853C15.6539 2.84853 15.3809 2.87481 15.1069 2.92658C14.3902 3.06087 13.6622 3.3677 12.9282 3.83194C13.1287 4.02865 13.3194 4.25374 13.4989 4.49946C14.2453 3.88358 14.987 3.42854 15.7258 3.15496C15.9955 3.05464 16.2734 2.97783 16.5564 2.9254C16.3493 2.8736 16.1365 2.84777 15.923 2.84853Z" fill="#14559A"/>
<path d="M21.6746 13.9575C21.9825 13.7129 22.279 13.4545 22.5633 13.1831C21.3326 9.51753 20.8921 2.854 17.3253 2.854C17.0703 2.854 16.8129 2.87766 16.5562 2.92496C19.8051 3.72835 20.2212 10.7563 21.6748 13.9575" fill="url(#paint2_linear_7_2544)"/>
<path d="M16.5563 2.92514C16.3492 2.87341 16.1364 2.84763 15.9229 2.84841L17.3255 2.85353C17.0704 2.85353 16.8131 2.87731 16.5563 2.92514Z" fill="#3092C4"/>
<path d="M21.6127 14.7361C21.4733 14.6039 21.3408 14.4589 21.2105 14.3041C20.6105 14.7264 20.0129 15.0468 19.4189 15.2552C19.6309 15.3587 19.8554 15.4347 20.0869 15.4814C20.2742 15.5192 20.465 15.5379 20.6561 15.5374C21.3225 15.5374 21.8495 15.459 22.2981 15.245C22.0511 15.1123 21.8245 14.9402 21.6127 14.7361Z" fill="#1969BC"/>
<path d="M15.7256 3.15541C18.6355 4.66863 18.8885 11.5215 21.2104 14.3041C21.3684 14.1931 21.5231 14.0775 21.6743 13.9574C20.2208 10.7562 19.8051 3.72779 16.5569 2.92493C16.2737 2.97793 15.9955 3.05504 15.7256 3.15541Z" fill="url(#paint3_linear_7_2544)"/>
<path d="M13.499 4.49963C15.7302 7.53738 16.5291 13.8474 19.4191 15.2553C20.0131 15.0469 20.6109 14.7265 21.2108 14.3042C18.8888 11.5216 18.6359 4.66874 15.7259 3.15552C14.9872 3.42857 14.2455 3.88362 13.499 4.4995" fill="url(#paint4_linear_7_2544)"/>
<path d="M11.2033 5.19647C10.8536 5.98265 10.4964 7.016 10.0645 8.36484C10.9234 7.16172 11.7795 6.12496 12.6309 5.2853C12.5137 4.92684 12.3877 4.59636 12.252 4.30176C11.8865 4.58103 11.5365 4.87975 11.2034 5.19661" fill="url(#paint5_linear_7_2544)"/>
<path d="M12.5622 4.07507C12.4577 4.14901 12.3545 4.22462 12.2524 4.30187C12.3882 4.59634 12.5136 4.92682 12.6308 5.28529C12.7821 5.13748 12.9359 4.99234 13.0923 4.84995C12.9275 4.56836 12.7524 4.30831 12.5622 4.07507Z" fill="#2B74B1"/>
<path d="M12.9284 3.83204C12.8045 3.91032 12.6823 3.99128 12.562 4.07487C12.7523 4.30811 12.9274 4.56815 13.0928 4.85027C13.2257 4.73041 13.3612 4.61343 13.4993 4.49943C13.3198 4.25384 13.129 4.02862 12.9284 3.83191" fill="#125A9E"/>
<path d="M32.7771 2.5681C31.1313 8.87868 27.6938 13.9472 24.8118 15.2251H24.8065C24.754 15.2488 24.7021 15.2703 24.6508 15.2912C24.6436 15.2956 24.6372 15.2961 24.6317 15.2986C24.6167 15.3046 24.6027 15.3094 24.5875 15.3154C24.5803 15.3196 24.574 15.3211 24.5675 15.3236C24.5432 15.3322 24.5194 15.3395 24.4956 15.3489C24.4853 15.3532 24.4757 15.3559 24.4659 15.3593C24.4542 15.3638 24.4423 15.3676 24.4302 15.3709C24.4194 15.3751 24.408 15.3782 24.3956 15.3829C24.3853 15.3871 24.3744 15.389 24.3648 15.3932C24.3436 15.3992 24.3243 15.4044 24.3032 15.4116C24.2945 15.4116 24.2864 15.4163 24.2773 15.4187C24.2642 15.4229 24.2495 15.4259 24.2355 15.4299C24.2259 15.4341 24.2178 15.4355 24.2075 15.4376C24.193 15.4418 24.1767 15.4458 24.162 15.4492L24.1069 15.4613C24.2389 15.5096 24.3786 15.534 24.5193 15.5333C27.2521 15.5333 30.0074 10.664 34.5666 2.56665H32.7765L32.7771 2.5681Z" fill="url(#paint6_linear_7_2544)"/>
<path d="M9.47105 3.10456C9.47276 3.10456 9.47501 3.10035 9.47593 3.10035C9.47818 3.10035 9.48149 3.10035 9.48254 3.09615H9.48598C9.50105 3.09089 9.51505 3.08498 9.53025 3.07933C9.53422 3.07933 9.5362 3.07933 9.53898 3.07512C9.54281 3.07512 9.54651 3.07079 9.55034 3.07026C9.56647 3.06514 9.58272 3.05909 9.59792 3.05357H9.60043C9.63664 3.0428 9.67021 3.02939 9.70523 3.01691C9.71026 3.01691 9.71501 3.01271 9.72096 3.01271C9.7355 3.00798 9.7507 3.00285 9.7659 2.99943C9.7729 2.9951 9.77991 2.9951 9.78638 2.99286C9.80198 2.98826 9.81717 2.98301 9.83171 2.97959C9.83832 2.97959 9.84414 2.97526 9.84903 2.97486C9.89925 2.96106 9.94907 2.94819 9.99929 2.93623C10.0063 2.93623 10.0122 2.93189 10.0198 2.9315C10.0343 2.92729 10.0479 2.92493 10.0637 2.92283C10.0701 2.91862 10.0777 2.91862 10.0852 2.91639C10.0997 2.91218 10.1139 2.91166 10.1296 2.90824H10.1398C10.1702 2.90207 10.201 2.89707 10.2312 2.89142H10.2496C10.2641 2.88722 10.2771 2.88669 10.2918 2.88406C10.2997 2.88406 10.3079 2.87986 10.3156 2.87986C10.329 2.87986 10.3425 2.87552 10.356 2.87381C10.3631 2.87381 10.37 2.87381 10.3782 2.86948C10.4101 2.86527 10.443 2.86356 10.4765 2.86094C10.3799 2.85128 10.2829 2.84624 10.1858 2.84583C7.10827 2.84583 2.868 8.52331 0.958008 15.8758H1.32608C1.93732 14.792 2.48645 13.7666 2.98867 12.8041C4.32627 7.59627 7.05091 4.04474 9.47118 3.10377" fill="url(#paint7_linear_7_2544)"/>
<path d="M11.2036 5.1965C11.5367 4.87964 11.8867 4.58092 12.2522 4.30166C12.1778 4.13727 12.0944 3.97707 12.0024 3.82178C11.7209 4.16145 11.4636 4.60966 11.2036 5.1965Z" fill="#0D82CA"/>
<path d="M11.4565 3.14765C11.6575 3.31532 11.8375 3.5458 12.0023 3.82214C12.0542 3.75867 12.1067 3.70006 12.1613 3.64527C11.9326 3.43305 11.6855 3.25895 11.4175 3.12781C11.4283 3.13372 11.4392 3.13858 11.4504 3.14331C11.4504 3.14331 11.4546 3.14765 11.4565 3.14765Z" fill="#0D82CA"/>
<path d="M2.98828 12.8049C5.79459 7.42828 7.12414 4.0255 9.47092 3.10437C7.05118 4.046 4.32602 7.59753 2.98841 12.8049" fill="url(#paint8_linear_7_2544)"/>
<path d="M12.1608 3.64514C12.1062 3.70046 12.0544 3.75854 12.002 3.82201C12.094 3.97731 12.1776 4.13746 12.2523 4.30176C12.3543 4.22455 12.4575 4.14898 12.5619 4.07509C12.4385 3.92263 12.3045 3.77897 12.1608 3.64514Z" fill="#127BCA"/>
<path d="M4.26254 15.8523C4.24522 15.8566 4.22791 15.8566 4.21165 15.8584H4.20201C4.18734 15.8584 4.17214 15.8627 4.15866 15.8627H4.15165C4.1165 15.8669 4.08187 15.8669 4.04843 15.8695H4.0376C6.87788 15.7906 8.1761 14.3767 8.82051 12.326C9.31017 10.7714 9.71221 9.46171 10.0647 8.36279C8.87496 10.0277 7.67996 12.0122 6.47848 14.2354C5.89909 15.3069 5.0181 15.7544 4.2624 15.8503" fill="url(#paint9_linear_7_2544)"/>
<path d="M4.26234 15.8512C5.01791 15.7556 5.89889 15.3085 6.47829 14.2363C7.67977 12.0138 8.87543 10.0287 10.0638 8.36381C10.4963 7.01431 10.8531 5.98149 11.2033 5.19531C8.83433 7.43729 6.45608 11.1652 4.26221 15.8502" fill="url(#paint10_linear_7_2544)"/>
<path d="M2.98827 12.8049C2.48606 13.7673 1.93693 14.7926 1.32568 15.8766H2.39632C2.53153 14.842 2.72921 13.8164 2.98827 12.8055" fill="#05A1E6"/>
<path d="M10.3781 2.8723C10.3694 2.8723 10.3629 2.87651 10.3554 2.87651C10.3424 2.88084 10.329 2.88084 10.3153 2.88216C10.3074 2.88216 10.2998 2.88216 10.2916 2.8865C10.277 2.8907 10.2635 2.89109 10.2494 2.89385C10.2429 2.89385 10.2364 2.89385 10.231 2.89806C10.2002 2.90318 10.17 2.90883 10.1398 2.91396H10.1295C10.1138 2.91829 10.0997 2.92053 10.0851 2.92263C10.0776 2.92684 10.0701 2.92684 10.0629 2.92854C10.0484 2.93288 10.0338 2.93459 10.0197 2.93722C10.0122 2.94142 10.0062 2.94142 9.99922 2.94182C9.94899 2.9539 9.89917 2.96678 9.84895 2.98058C9.84366 2.98058 9.83811 2.98478 9.83164 2.9857C9.81657 2.98991 9.8019 2.99424 9.78617 2.99898C9.7797 3.00331 9.77216 3.00331 9.76569 3.00502C9.75063 3.00916 9.73565 3.01359 9.72075 3.01829C9.71494 3.01829 9.71005 3.0225 9.70463 3.0225C9.67 3.03537 9.6359 3.04838 9.60022 3.05903C9.58516 3.06376 9.5689 3.0698 9.55264 3.07545C9.54617 3.07966 9.54035 3.08071 9.53282 3.0836C9.51762 3.08833 9.50242 3.09437 9.48841 3.09989C9.48313 3.10423 9.47758 3.10462 9.47388 3.10686C7.12709 4.02798 5.79741 7.43064 2.99123 12.8072C2.73194 13.8182 2.5343 14.8438 2.39941 15.8785H2.54968C2.97286 15.8785 3.09234 15.8741 3.57922 15.8741H4.05117C4.0846 15.8699 4.11923 15.8699 4.15425 15.8672H4.16086C4.1754 15.8672 4.18994 15.863 4.20408 15.863H4.21438C4.22998 15.863 4.24782 15.8588 4.26513 15.8569C6.45901 11.1719 8.83712 7.44404 11.2062 5.20206C11.4666 4.61535 11.7234 4.16714 12.0045 3.82799C11.8401 3.55178 11.6601 3.32078 11.4591 3.15311C11.2581 2.98544 11.4537 3.15311 11.4533 3.14877C11.4418 3.14417 11.4311 3.13852 11.4197 3.13301C11.4083 3.12683 11.3985 3.1221 11.3866 3.11619C11.3756 3.11156 11.3648 3.10638 11.3543 3.10068C11.3403 3.09634 11.3289 3.0903 11.3165 3.08478C11.3062 3.08044 11.297 3.07611 11.2867 3.0719C11.2658 3.06382 11.2451 3.05519 11.2246 3.04602C11.2154 3.04181 11.2068 3.03945 11.1982 3.03616C11.1825 3.03047 11.1669 3.02434 11.1515 3.01777C11.144 3.01343 11.1354 3.01251 11.1267 3.00949C11.1046 3.00213 11.0829 2.99438 11.0625 2.98754H11.057C11.0322 2.9794 11.0079 2.97335 10.9825 2.96652C10.9765 2.96218 10.9717 2.96218 10.9657 2.96126C10.9435 2.95535 10.9241 2.94944 10.9031 2.94379C10.8978 2.94379 10.8928 2.93945 10.8885 2.93945C10.8368 2.92628 10.7847 2.91498 10.7322 2.90555C10.7269 2.90555 10.7215 2.90121 10.7161 2.90121C10.6937 2.89679 10.6712 2.8932 10.6485 2.89044C10.643 2.88623 10.6398 2.88623 10.635 2.88623C10.6084 2.88218 10.5817 2.87872 10.555 2.87585H10.5409C10.5193 2.87165 10.4993 2.87125 10.4794 2.86902C10.4453 2.87322 10.4129 2.87506 10.3809 2.87809" fill="url(#paint11_linear_7_2544)"/>
<path d="M26.3484 6.06163C25.8085 7.78128 25.3712 9.1999 24.9907 10.3671C26.4723 8.34014 27.9316 5.79015 29.3213 2.84753C27.7003 3.35369 26.8354 4.5124 26.3484 6.06163Z" fill="url(#paint12_linear_7_2544)"/>
<path d="M25.038 15.1177C24.9624 15.156 24.8867 15.1924 24.812 15.2251C27.6941 13.9473 31.1316 8.8787 32.7774 2.56812H32.4438C28.6627 9.28381 27.4465 13.7796 25.038 15.1177Z" fill="url(#paint13_linear_7_2544)"/>
<path d="M23.1559 14.5535C23.7829 13.7926 24.2937 12.4991 24.991 10.3672C24.1866 11.4657 23.377 12.4098 22.5667 13.18C22.5667 13.1842 22.5667 13.1842 22.5625 13.1868C22.7393 13.7135 22.9333 14.1782 23.1543 14.5534" fill="#079AE1"/>
<path d="M23.1561 14.5536C22.9427 14.8125 22.7167 15.0098 22.4654 15.1559C22.4102 15.1877 22.3545 15.2177 22.2979 15.2453C22.5706 15.3921 22.869 15.4857 23.1771 15.5208C23.2247 15.5256 23.2717 15.5299 23.3209 15.5333H23.3296C23.3517 15.5333 23.3751 15.5333 23.3989 15.5375H23.6333C23.6419 15.5375 23.6509 15.5375 23.6596 15.5333C23.6764 15.5333 23.6943 15.5333 23.7114 15.529H23.7371C23.7548 15.529 23.7742 15.5248 23.7933 15.5229H23.7976C23.8032 15.5229 23.8092 15.5187 23.8148 15.5187C23.8346 15.5144 23.8555 15.5127 23.8749 15.5097H23.8926C23.9146 15.5055 23.9374 15.5027 23.96 15.4985H23.971C24.0163 15.4898 24.0606 15.4814 24.1056 15.4701C23.7337 15.3348 23.4223 15.0155 23.1543 14.5608" fill="#1969BC"/>
<path d="M17.8428 15.5375C18.1125 15.5375 18.3849 15.5112 18.6585 15.459C18.9114 15.4134 19.1649 15.3434 19.4189 15.2554C19.6308 15.3588 19.8551 15.4349 20.0863 15.4816C20.2739 15.5193 20.4648 15.538 20.6561 15.5375H17.8428Z" fill="#1E5CB3"/>
<path d="M20.6561 15.5375C21.3221 15.5375 21.8496 15.459 22.2976 15.2451C22.5703 15.392 22.8688 15.4857 23.177 15.5209C23.2246 15.5255 23.2716 15.5299 23.3208 15.5333H23.3295C23.3516 15.5333 23.375 15.5333 23.3988 15.5376H23.4795H20.6543L20.6561 15.5375Z" fill="#1E5CB3"/>
<path d="M23.481 15.5375H23.6351C23.6443 15.5375 23.6528 15.5375 23.6615 15.5333C23.6783 15.5333 23.6961 15.5333 23.714 15.529H23.7395C23.7572 15.529 23.7766 15.5248 23.7951 15.5231H23.7999C23.8055 15.5231 23.8111 15.5189 23.8168 15.5189C23.8366 15.5145 23.8574 15.5128 23.8768 15.5097C23.8833 15.5097 23.8884 15.5097 23.8953 15.5055C23.9174 15.5013 23.9402 15.499 23.9629 15.4948H23.9738C24.0191 15.4861 24.0634 15.4776 24.1083 15.4664C24.2403 15.5148 24.38 15.5392 24.5207 15.5384L23.4819 15.5426L23.481 15.5375Z" fill="#1D60B5"/>
<path d="M22.5642 13.187V13.1826C22.28 13.454 21.9836 13.7124 21.6757 13.957C21.5243 14.0769 21.3695 14.1925 21.2114 14.3036C21.3416 14.4584 21.4742 14.6035 21.6136 14.7358C21.8254 14.9399 22.0518 15.1119 22.2988 15.2446C22.3551 15.217 22.4113 15.187 22.4659 15.1554C22.7178 15.0092 22.9437 14.812 23.1571 14.553C22.9361 14.1779 22.7421 13.7131 22.5653 13.1864" fill="#175FAB"/>
<path d="M31.3873 2.56812H29.7087C29.6181 2.57245 29.5299 2.57547 29.443 2.58099C29.4019 2.66864 29.3597 2.75628 29.3191 2.84445C27.9296 5.78707 26.4703 8.33706 24.9887 10.3641C24.292 12.4958 23.7808 13.7893 23.1538 14.5503C23.4218 15.0049 23.7337 15.3246 24.1044 15.4601C24.1153 15.4558 24.124 15.4558 24.1337 15.4535H24.1397C24.1462 15.4535 24.1532 15.4493 24.1602 15.4493C24.1753 15.445 24.1915 15.4424 24.2067 15.4378C24.2164 15.4334 24.2244 15.433 24.2342 15.4299C24.2484 15.4257 24.2629 15.4226 24.2759 15.4192C24.2846 15.4149 24.2932 15.4136 24.3018 15.4119C24.3234 15.4049 24.3429 15.3998 24.3635 15.3933C24.3731 15.3891 24.3834 15.3855 24.3943 15.383C24.4062 15.3788 24.4181 15.3757 24.4289 15.3706C24.4413 15.3663 24.4537 15.364 24.4646 15.3594C24.4742 15.3551 24.4844 15.3525 24.4937 15.3487C24.518 15.34 24.5418 15.3328 24.5661 15.3233C24.5727 15.3233 24.5792 15.3173 24.5862 15.3159C24.6007 15.3099 24.6159 15.3052 24.6304 15.2987C24.6357 15.2944 24.6423 15.294 24.6493 15.2918C24.7002 15.2707 24.7526 15.2492 24.805 15.2257H24.8105C24.8866 15.192 24.9618 15.1561 25.0359 15.1182C27.4448 13.7801 28.6611 9.28433 32.4422 2.56864H31.3861L31.3873 2.56812Z" fill="url(#paint14_linear_7_2544)"/>
<path d="M10.4767 2.86317C10.4826 2.86317 10.4879 2.86317 10.4939 2.86737C10.5084 2.86737 10.523 2.86737 10.5376 2.8721H10.5522C10.5787 2.87631 10.6053 2.87867 10.6322 2.88248C10.6371 2.88248 10.6415 2.88248 10.6457 2.88669C10.6679 2.89089 10.6907 2.89457 10.7133 2.89786C10.7183 2.89786 10.7246 2.90219 10.73 2.90219C10.782 2.91244 10.835 2.92322 10.8857 2.93649C10.8906 2.93649 10.8955 2.94083 10.8997 2.94083C10.9214 2.94595 10.9408 2.95239 10.9625 2.95843C10.9691 2.95843 10.9739 2.96264 10.9797 2.96369C11.0052 2.97013 11.029 2.97657 11.0538 2.98471C11.0549 2.98471 11.0565 2.98471 11.0593 2.98892C11.0804 2.99536 11.1019 3.0035 11.1242 3.01086C11.1329 3.01507 11.1409 3.01691 11.149 3.01901C11.1642 3.02558 11.181 3.03189 11.1955 3.03793C11.2042 3.03793 11.2127 3.04398 11.222 3.04713C11.2419 3.05607 11.2629 3.06421 11.2835 3.07275C11.2944 3.07709 11.3035 3.08195 11.3139 3.08576C11.3258 3.09181 11.3381 3.09733 11.3511 3.10153C11.3619 3.10679 11.3738 3.11231 11.3841 3.11704C11.3955 3.12321 11.4062 3.12781 11.4172 3.13386C11.6852 3.26499 11.9322 3.43963 12.1608 3.65145C12.2427 3.56574 12.3308 3.48615 12.4245 3.41335C11.9245 3.06066 11.3582 2.85962 10.7047 2.85962C10.6291 2.85962 10.5533 2.86396 10.4766 2.86961" fill="#7DCBEC"/>
<path d="M12.1608 3.64521C12.3044 3.77904 12.4384 3.92271 12.5619 4.07516C12.6821 3.99129 12.8042 3.91023 12.9282 3.83207C12.7726 3.67631 12.6039 3.5341 12.4239 3.40698C12.3303 3.47965 12.2422 3.55924 12.1606 3.64508" fill="#5EC5ED"/>
<path d="M10.4764 2.8631C10.5531 2.85666 10.6288 2.8539 10.7045 2.8539C11.3579 2.8539 11.9244 3.05495 12.4244 3.4071C12.9519 2.99319 13.5896 2.84865 14.4755 2.84865H10.1855C10.2847 2.84865 10.3813 2.85456 10.4764 2.8631Z" fill="url(#paint15_linear_7_2544)"/>
<path d="M14.4755 2.84862C13.5896 2.84862 12.9519 2.99316 12.4243 3.40708C12.604 3.53429 12.7726 3.67646 12.9281 3.83203C13.6625 3.36779 14.3901 3.06031 15.1075 2.92601C15.3763 2.87519 15.6493 2.84928 15.9229 2.84862H14.4755Z" fill="url(#paint16_linear_7_2544)"/>
<path d="M24.991 10.3682C25.372 9.20006 25.8082 7.78183 26.3492 6.06165C26.8369 4.51176 27.6999 3.35319 29.3208 2.84756C29.3636 2.76096 29.4041 2.67174 29.4457 2.58423C26.8033 2.74165 25.5682 4.07814 24.9467 6.05731C23.8598 9.51266 23.2014 11.7525 22.5674 13.1798C23.3771 12.4103 24.1868 11.4656 24.991 10.3682Z" fill="url(#paint17_linear_7_2544)"/>
<defs>
<linearGradient id="paint0_linear_7_2544" x1="811.566" y1="-568.575" x2="811.566" y2="3813.53" gradientUnits="userSpaceOnUse">
<stop stop-color="#0994DC"/>
<stop offset="0.35" stop-color="#66CEF5"/>
<stop offset="0.846" stop-color="#127BCA"/>
<stop offset="1" stop-color="#127BCA"/>
</linearGradient>
<linearGradient id="paint1_linear_7_2544" x1="851.702" y1="-583.533" x2="851.702" y2="3910.17" gradientUnits="userSpaceOnUse">
<stop stop-color="#0E76BC"/>
<stop offset="0.36" stop-color="#36AEE8"/>
<stop offset="0.846" stop-color="#00ADEF"/>
<stop offset="1" stop-color="#00ADEF"/>
</linearGradient>
<linearGradient id="paint2_linear_7_2544" x1="812.808" y1="3388.82" x2="812.808" y2="-186.832" gradientUnits="userSpaceOnUse">
<stop stop-color="#1C63B7"/>
<stop offset="0.5" stop-color="#33BDF2"/>
<stop offset="1" stop-color="#33BDF2" stop-opacity="0.42"/>
</linearGradient>
<linearGradient id="paint3_linear_7_2544" x1="804.266" y1="-607.573" x2="804.266" y2="4058.12" gradientUnits="userSpaceOnUse">
<stop stop-color="#166AB8"/>
<stop offset="0.4" stop-color="#36AEE8"/>
<stop offset="0.846" stop-color="#0798DD"/>
<stop offset="1" stop-color="#0798DD"/>
</linearGradient>
<linearGradient id="paint4_linear_7_2544" x1="1035.7" y1="-646.203" x2="1035.7" y2="4315.15" gradientUnits="userSpaceOnUse">
<stop stop-color="#124379"/>
<stop offset="0.39" stop-color="#1487CB"/>
<stop offset="0.78" stop-color="#165197"/>
<stop offset="1" stop-color="#165197"/>
</linearGradient>
<linearGradient id="paint5_linear_7_2544" x1="10.0645" y1="562.824" x2="12.6309" y2="562.824" gradientUnits="userSpaceOnUse">
<stop stop-color="#33BDF2" stop-opacity="0.698"/>
<stop offset="1" stop-color="#1DACD8"/>
</linearGradient>
<linearGradient id="paint6_linear_7_2544" x1="1410.85" y1="3377.92" x2="1410.85" y2="-105.268" gradientUnits="userSpaceOnUse">
<stop stop-color="#136AB4"/>
<stop offset="0.6" stop-color="#59CAF5" stop-opacity="0.549"/>
<stop offset="1" stop-color="#59CAF5" stop-opacity="0.235"/>
</linearGradient>
<linearGradient id="paint7_linear_7_2544" x1="0.932773" y1="1793.94" x2="2524.37" y2="1793.94" gradientUnits="userSpaceOnUse">
<stop stop-color="#05A1E6" stop-opacity="0.247"/>
<stop offset="1" stop-color="#05A1E6"/>
</linearGradient>
<linearGradient id="paint8_linear_7_2544" x1="862.254" y1="3318.38" x2="862.254" y2="-248.14" gradientUnits="userSpaceOnUse">
<stop stop-color="#318ED5"/>
<stop offset="1" stop-color="#38A7E4"/>
</linearGradient>
<linearGradient id="paint9_linear_7_2544" x1="802.935" y1="1890.5" x2="802.935" y2="-1576.29" gradientUnits="userSpaceOnUse">
<stop stop-color="#05A1E6"/>
<stop offset="1" stop-color="#05A1E6" stop-opacity="0.549"/>
</linearGradient>
<linearGradient id="paint10_linear_7_2544" x1="924.334" y1="2935.01" x2="924.334" y2="5.48831" gradientUnits="userSpaceOnUse">
<stop stop-color="#1959A6"/>
<stop offset="0.5" stop-color="#05A1E6"/>
<stop offset="0.918" stop-color="#7EC5EA"/>
<stop offset="1" stop-color="#7EC5EA"/>
</linearGradient>
<linearGradient id="paint11_linear_7_2544" x1="1525.24" y1="3385.15" x2="569.325" y2="338.172" gradientUnits="userSpaceOnUse">
<stop stop-color="#165096"/>
<stop offset="1" stop-color="#0D82CA"/>
</linearGradient>
<linearGradient id="paint12_linear_7_2544" x1="598.962" y1="1594.62" x2="598.962" y2="-65.3523" gradientUnits="userSpaceOnUse">
<stop stop-color="#05A1E6"/>
<stop offset="0.874" stop-color="#0495D6"/>
<stop offset="1" stop-color="#0495D6"/>
</linearGradient>
<linearGradient id="paint13_linear_7_2544" x1="1402.96" y1="-142.221" x2="-93.0445" y2="3322.27" gradientUnits="userSpaceOnUse">
<stop stop-color="#38A7E4" stop-opacity="0.329"/>
<stop offset="0.962" stop-color="#0E88D3"/>
<stop offset="1" stop-color="#0E88D3"/>
</linearGradient>
<linearGradient id="paint14_linear_7_2544" x1="1254.79" y1="-7.9229" x2="1254.79" y2="3613.53" gradientUnits="userSpaceOnUse">
<stop stop-color="#168CD4"/>
<stop offset="0.5" stop-color="#1C87CC"/>
<stop offset="1" stop-color="#154B8D"/>
</linearGradient>
<linearGradient id="paint15_linear_7_2544" x1="199.819" y1="-312.199" x2="214.776" y2="65.3235" gradientUnits="userSpaceOnUse">
<stop stop-color="#97D6EE"/>
<stop offset="0.703" stop-color="#55C1EA"/>
<stop offset="1" stop-color="#55C1EA"/>
</linearGradient>
<linearGradient id="paint16_linear_7_2544" x1="76.329" y1="-13.2006" x2="143.165" y2="-408.585" gradientUnits="userSpaceOnUse">
<stop stop-color="#7ACCEC"/>
<stop offset="1" stop-color="#3FB7ED"/>
</linearGradient>
<linearGradient id="paint17_linear_7_2544" x1="934.263" y1="187.935" x2="934.263" y2="3730.01" gradientUnits="userSpaceOnUse">
<stop stop-color="#1DA7E7"/>
<stop offset="1" stop-color="#37ABE7" stop-opacity="0"/>
</linearGradient>
</defs>
</svg>
